<svg xmlns="http://www.w3.org/2000/svg" xmlns:xlink="http://www.w3.org/1999/xlink" viewBox="0 0 1000 800"><defs><style>.cls-1{isolation:isolate;}.cls-2{opacity:0.5;mix-blend-mode:multiply;}.cls-12,.cls-3{fill:#00a182;}.cls-4{fill:#8ab1cb;}.cls-5{fill:#b2ccdd;}.cls-6{fill:#e6f0ff;}.cls-41,.cls-7{fill:#00568f;}.cls-8{fill:#1e2e59;}.cls-16,.cls-9{fill:#fff;}.cls-10{fill:#6585d4;}.cls-11{fill:#7bcebe;}.cls-12{opacity:0.2;}.cls-13{fill:#ecfaff;}.cls-13,.cls-14,.cls-15,.cls-16,.cls-17,.cls-18,.cls-19,.cls-20,.cls-21,.cls-22,.cls-23,.cls-24,.cls-25,.cls-31,.cls-32,.cls-33,.cls-34,.cls-35,.cls-39,.cls-40,.cls-41,.cls-42,.cls-43,.cls-44,.cls-45,.cls-46,.cls-47,.cls-48{fill-rule:evenodd;}.cls-14{fill:#387d06;}.cls-15{fill:#8ae745;}.cls-17{fill:#c3d9e1;}.cls-18{fill:#d8d8d8;}.cls-19{fill:#c2c1c1;}.cls-20{fill:#a2a2a2;}.cls-21{fill:#ffe270;}.cls-22{fill:url(#linear-gradient);}.cls-23{fill:#b08c00;}.cls-24{fill:#d1a000;}.cls-25{fill:#8f7200;}.cls-26{fill:#fbcda6;}.cls-27{fill:#fcbb2c;}.cls-28{fill:#55758e;}.cls-29{fill:#33b49b;}.cls-30{fill:#414042;}.cls-31{fill:#bfe9f1;}.cls-32{fill:#0b2f96;}.cls-33{fill:#d9f2f7;}.cls-34{fill:#00a6c9;}.cls-35{fill:#9eddea;}.cls-36{fill:#ffa97e;}.cls-37{fill:#fddd95;}.cls-38{fill:#f60;}.cls-39{fill:#87d5e6;}.cls-40{fill:#2fb7d3;}.cls-42{fill:#2b2b2b;}.cls-43{fill:#b6dcff;}.cls-44{fill:#d0deff;}.cls-45{fill:#7484aa;}.cls-46{fill:#99a9d0;}.cls-47{fill:#8293bb;}.cls-48{fill:#b1c1e6;}.cls-49{fill:#33150a;}.cls-50{fill:#352f2f;}.cls-51{fill:#cca283;}.cls-52{fill:#d4dbdd;}.cls-53{fill:#4f10b2;}.cls-54{fill:#e8c5ac;}.cls-55{fill:#5b5353;}.cls-56{fill:#cea58e;}.cls-57{fill:#95226c;}.cls-58{fill:#f2c8a5;}.cls-59{fill:#7a7a7a;}.cls-60{fill:#868787;}.cls-61{fill:#6d6d6d;}.cls-62{fill:#dfeaea;}.cls-63{fill:#a7a9aa;}.cls-64{fill:#bfc1c1;}.cls-65{fill:#d1d1d1;}.cls-66{fill:#c1c7c8;}.cls-67{fill:#4f4f4f;}.cls-68{fill:#5b5b5b;}.cls-69{fill:#505151;}.cls-70{fill:#5e6060;}.cls-71{fill:#e5e5e5;}.cls-72{fill:#d64355;}.cls-73{fill:none;stroke:#fcbb2c;stroke-linecap:round;stroke-miterlimit:10;stroke-width:7.15px;stroke-dasharray:21.46 21.46;}</style><linearGradient id="linear-gradient" x1="3816.13" y1="258.44" x2="3872.11" y2="258.44" gradientTransform="matrix(-1, 0, 0, 1, 4370.41, 0)" gradientUnits="userSpaceOnUse"><stop offset="0.04" stop-color="#be9800"/><stop offset="0.3" stop-color="#fc0"/><stop offset="0.9" stop-color="#fc0"/><stop offset="1" stop-color="#e0b300"/></linearGradient></defs><title>1. Authentication</title><g class="cls-1"><g id="txt"><path class="cls-2" d="M658.36,747.15,406.8,603.2c-5.68-3.29-4.34-10.61,3-16.27l11.79-9.12c7.33-5.67,18-7.62,23.66-4.33L696.79,717.43c5.69,3.28,7.39,13.64.06,19.31l-11.79,9.12C670.84,754.29,664,750.43,658.36,747.15Z"/><polygon class="cls-3" points="287.2 241.72 203.45 193.37 203.45 97.27 287.2 145.62 287.2 241.72"/><path class="cls-4" d="M664.72,721.61l-212.6-141c-13.3-7.67-24.08-28.27-24.08-46V70.6c0-17.73,10.78-25.88,24.08-18.2l222,128.16c13.3,7.67,24.08,28.27,24.08,46V688.38c0,11.67-4.37,16.53-11.71,20.77Z"/><path class="cls-5" d="M541.76,285.71S427.94,551.89,427.94,534.17L409.25,65l27.9-14.74c4.09-1.93,9.26-1.51,14.87,1.73L674,180.1c6.49,3.75,12.38,10.58,16.71,18.65Z"/><path class="cls-6" d="M651.73,720.11,430.3,592c-13.29-7.67-23.53-28.27-23.53-46v-464c0-17.73,10.5-25.88,23.8-18.2l221.3,128.16c13.3,7.67,23.41,28.27,23.41,46v464C675.28,719.64,665,727.78,651.73,720.11Z"/><path class="cls-7" d="M647.29,721.75,425.86,593.6c-13.29-7.68-23.53-28.27-23.53-46v-464c0-17.73,10.5-25.88,23.8-18.21l221.3,128.16c13.3,7.68,23.41,28.27,23.41,46v464C670.84,721.28,660.59,729.43,647.29,721.75Z"/><path class="cls-7" d="M684.29,272.66v26.5c0,1.85,1.1,2.7,2.49,1.9l-.33-.22c1.38-.8,1.79-3,1.79-4.81v-26.5c0-1.85-.43-2.7-1.81-1.9v.22C685,268.65,684.29,270.81,684.29,272.66Z"/><path class="cls-7" d="M684.29,319.06v26.5c0,1.84,1.1,2.7,2.49,1.9l-.33-.23c1.38-.79,1.79-3,1.79-4.8V315.92c0-1.84-.43-2.7-1.81-1.9v.23C685,315.05,684.29,317.21,684.29,319.06Z"/><path class="cls-8" d="M641.15,642.45,425.26,517.81a7.25,7.25,0,0,1-3.63-6.29V119.66a7.25,7.25,0,0,1,10.88-6.28L648.41,238a7.27,7.27,0,0,1,3.63,6.29V636.17A7.25,7.25,0,0,1,641.15,642.45Z"/><path class="cls-9" d="M574.33,181.52,505.87,142c-2.41-1.39-4.37-5.14-4.37-8.34h0c0-3.21,2-4.69,4.37-3.31l68.46,39.54c2.41,1.38,4.37,5.14,4.37,8.34h0C578.7,181.42,576.74,182.91,574.33,181.52Z"/><path class="cls-10" d="M645.1,638.85,429.2,514.21a7.24,7.24,0,0,1-3.5-5.05l-4.07,2.46a7.25,7.25,0,0,0,3.63,6.29L641.15,642.55a7.26,7.26,0,0,0,10.21-3.23A7.14,7.14,0,0,1,645.1,638.85Z"/><path class="cls-9" d="M270.09,217c0-6.38-2.76-17.17-5.36-21h0a27.18,27.18,0,0,0-4-4.39c-1.34-1.26-3.07-3.05-4.76-4.79L254.34,185h0l-3.4-3.65-1.52-2c-.09-.11-.27-.31-.36-.45s0-.51,0-.73c-.06-1.56-.13-3.12-.2-4.68,1.38-.73,2.21-2.39,2.47-4.58,2.27,1.39,2.77-1.58,3-3.68.15-1.5.32-5.27-1.45-6.7,0-.23.08-.46.12-.66a18.65,18.65,0,0,0,.48-3.95,13,13,0,0,0-.89-4.65,4.38,4.38,0,0,0-.57-1.07,5.51,5.51,0,0,0-.29-1.7,24.78,24.78,0,0,0-6.85-11,15.83,15.83,0,0,0-8.4-4c-2-.28-4.61,0-4.65,3.52a3.82,3.82,0,0,0,.25,1.33c-.38-.19-.67.05-.86.35a6.76,6.76,0,0,0-.71,3.72,29.93,29.93,0,0,0,.66,4.61c0,.25.1.52.14.79-2.17-1.31-1.72,3.22-1.46,5.07.32,2.32,1,5.79,3,7.13a19.88,19.88,0,0,0,.69,3.12,18.52,18.52,0,0,0,1.88,4.15s0,0,0,.06l.21,4.8a4.92,4.92,0,0,1,0,.56c0-.12-.36.15-.45.19l-.94.47v0l-.89-.14v0l-.21,0a13.07,13.07,0,0,0-1.79-.25l-.07,0h0c-.76-.06-1.53-.09-2.28-.1a22,22,0,0,1-4.08-.36,7.77,7.77,0,0,0-3.87-.19c-2.4.82-4.82,4.51-4.72,17.13l53.76,32.88ZM253.83,165.2c0,.2,0,.39-.06.53C253.79,165.56,253.81,165.39,253.83,165.2Z"/><polygon class="cls-11" points="336.06 176.74 298.31 154.94 298.31 167.69 336.06 189.48 336.06 176.74"/><polygon class="cls-11" points="368.36 236.25 296.55 194.79 296.55 182.04 368.36 223.5 368.36 236.25"/><polygon class="cls-11" points="366.59 263.35 294.78 221.89 294.78 209.15 366.59 250.61 366.59 263.35"/><polygon class="cls-12" points="251.57 254.27 167.82 205.92 167.82 109.81 251.57 158.17 251.57 254.27"/><path class="cls-13" d="M554.36,534q11.08-5,11.37-19.63v-1q-.18-15.6-11.54-32A83.32,83.32,0,0,0,547.7,473a68.84,68.84,0,0,0-20.56-15.94Q511.29,449.55,500,455c-.34.17-.71.34-1.1.51a23.82,23.82,0,0,0-8.23,2.29q-11.35,5.43-11.36,21.12.3,13.77,9.28,28.24c.69,1.09,1.41,2.2,2.17,3.31q11.19,16.44,27,24a52.61,52.61,0,0,0,7.55,3q11.11,3.4,19.67-.68.6-.26,1.11-.51A24.23,24.23,0,0,0,554.36,534Z"/><path class="cls-14" d="M498.9,455.49q8.48-.6,18.74,4.49a70.88,70.88,0,0,1,22.14,17.64c1.76,2.08,3.46,4.28,5.08,6.62q11.21,16.45,11.37,32c0,1.28,0,2.51-.13,3.69q-1.05,11.63-10,16.41a24.23,24.23,0,0,0,8.22-2.29q11.08-5,11.37-19.63v-1q-.18-15.6-11.54-32A83.32,83.32,0,0,0,547.7,473a68.84,68.84,0,0,0-20.56-15.94Q511.29,449.55,500,455C499.66,455.15,499.29,455.32,498.9,455.49Z"/><path class="cls-15" d="M545,536.82q-8.55,4.08-19.67.68a52.61,52.61,0,0,1-7.55-3q-15.85-7.56-27-24c-.76-1.11-1.48-2.22-2.17-3.31q-9-14.47-9.28-28.24,0-15.69,11.36-21.12a23.82,23.82,0,0,1,8.23-2.29q8.48-.6,18.74,4.49a70.88,70.88,0,0,1,22.14,17.64c1.76,2.08,3.46,4.28,5.08,6.62q11.21,16.45,11.37,32c0,1.28,0,2.51-.13,3.69q-1.05,11.63-10,16.41Q545.63,536.57,545,536.82Zm-6-42.79a5.63,5.63,0,0,0,2.77-3.13,2.38,2.38,0,0,0-1-3,5.43,5.43,0,0,0-4.14-1,10.12,10.12,0,0,0-5,1.47l-20.34,12.35-3.7-12.43c-.25-1.13-1.16-1.9-2.74-2.3a7.85,7.85,0,0,0-4.66.19,9.48,9.48,0,0,0-4.41,2.52,4,4,0,0,0-1.25,3.47l5.51,18.31a4.42,4.42,0,0,0,2,2,11.15,11.15,0,0,0,4,.41,13.18,13.18,0,0,0,4.24-1.51Z"/><path class="cls-13" d="M592.19,441v21.41L473,394l-4.15-2.37V216.16l18.32,10.52,11,6.32v33.2q.09,2.46,3,4.15l36,20.7a13.67,13.67,0,0,0,7,1.69h1.1a12.66,12.66,0,0,0,6-1.69,16,16,0,0,0,2.88-2.12V265.18l38,21.8V441Z"/><polygon class="cls-13" points="574.38 348.38 574.38 327.18 486.52 276.71 486.52 297.92 574.38 348.38"/><polygon class="cls-16" points="574.38 424.37 574.38 403.16 486.52 352.7 486.52 373.9 574.38 424.37"/><polygon class="cls-13" points="574.38 383.66 574.38 362.46 486.52 312 486.52 333.2 574.38 383.66"/><polygon class="cls-17" points="486.52 276.71 574.38 327.18 574.38 348.38 486.52 297.92 486.52 276.71"/><polygon class="cls-17" points="486.52 312 574.38 362.46 574.38 383.66 486.52 333.2 486.52 312"/><path class="cls-18" d="M513.06,190.3v.42a3.64,3.64,0,0,0,1.1,3.05,7.52,7.52,0,0,0,3,1.11,31.77,31.77,0,0,1,4.75,1.18,20.58,20.58,0,0,1,6.11,3.4c.51.45,2.17,2.51,5,6.19q4.41,5.17,7,5.17a4.21,4.21,0,0,0,3.31-1.44.78.78,0,0,1-.17-.26l-.6-1.1c0-.06,0-.08-.08-.08-.71-1.25-1.45-2.44-2.21-3.57l-.59-.34a2.47,2.47,0,0,1-1.27-2.2A35.47,35.47,0,0,0,528,192.67a1.22,1.22,0,0,1-.43-.25.22.22,0,0,0-.17-.09.29.29,0,0,1-.17-.08.26.26,0,0,1-.17-.09H527a.5.5,0,0,0-.34-.17l-.17-.17a19.79,19.79,0,0,0-8.73-2.37h-.17l-4.24.76A.36.36,0,0,1,513.06,190.3Z"/><path class="cls-19" d="M548.51,240.67V228.12a39.28,39.28,0,0,0-5.17-18.74,4.21,4.21,0,0,1-3.31,1.44q-2.62,0-7-5.17c-2.83-3.68-4.49-5.74-5-6.19a20.58,20.58,0,0,0-6.11-3.4,31.77,31.77,0,0,0-4.75-1.18,7.52,7.52,0,0,1-3-1.11,3.64,3.64,0,0,1-1.1-3.05v-.42a21.44,21.44,0,0,0-2.2,1.18v-.08q-7.38,3.9-7.38,15.52v8.82q3-1.86,3.73-9.33a33.23,33.23,0,0,1,1-3.48q3.22-8.73,13.31-4.41a15.36,15.36,0,0,1,2.38,1.11q6.78,4,11.62,12.29t4.83,16.2v16.11a.81.81,0,0,0,.08.34,3.57,3.57,0,0,0,1.19,2.46,3.84,3.84,0,0,0,2.8,1.19,3.93,3.93,0,0,0,2.88-1.19,4.09,4.09,0,0,0,1.19-2.54v-3.82Z"/><path class="cls-20" d="M521.54,198.52q-10.1-4.32-13.31,4.41a33.23,33.23,0,0,0-1,3.48q-.76,7.47-3.73,9.33V225a3.49,3.49,0,0,0,1.19,2.46,3.82,3.82,0,0,0,2.79,1.19,4,4,0,0,0,2.89-1.19,4.45,4.45,0,0,0,1.19-2.54v-18a12.46,12.46,0,0,1,1.52-6.62,7.35,7.35,0,0,1,1.87-1.86A8.14,8.14,0,0,1,521.54,198.52Z"/><path class="cls-21" d="M554.19,247.8a3.9,3.9,0,0,0,.26-1.36v-.3q-.19-2.19-3-3.77l-3-1.7v3.82a2,2,0,0,1,.85,1.61,2.24,2.24,0,0,1-1.44,2,6.55,6.55,0,0,1-3.4.85,6.69,6.69,0,0,1-3.47-.85,2.23,2.23,0,0,1-1.36-2,2,2,0,0,1,.76-1.53.81.81,0,0,1-.08-.34V236l-24.76-14.33a10.63,10.63,0,0,0-4.07-1.45v4.67a1.94,1.94,0,0,1,.84,1.52,2.42,2.42,0,0,1-1.44,2,5.81,5.81,0,0,1-3.39.76,6.8,6.8,0,0,1-3.39-.76c-1-.57-1.45-1.22-1.45-2a2,2,0,0,1,.77-1.53v-4.24a11,11,0,0,0-2,.85,6,6,0,0,0-2.71,2.8,3.82,3.82,0,0,0-.26,1.36q0,2.37,3,4.07l35.88,20.77a14.66,14.66,0,0,0,7.12,1.62,13.09,13.09,0,0,0,7-1.62A6,6,0,0,0,554.19,247.8Z"/><path class="cls-22" d="M498.22,224.13l.51.26a3.82,3.82,0,0,0-.26,1.36q0,2.37,3,4.07l35.88,20.77a14.66,14.66,0,0,0,7.12,1.62,13.09,13.09,0,0,0,7-1.62,6,6,0,0,0,2.71-2.79v41.13a16,16,0,0,1-2.88,2.12,12.66,12.66,0,0,1-6,1.69h-1.1a13.67,13.67,0,0,1-7-1.69l-36-20.7q-2.88-1.69-3-4.15V224.13ZM521,272.47v-9.15h.09a3.07,3.07,0,0,0,1.35-.34c1-.57,1.45-1.67,1.45-3.31a10.94,10.94,0,0,0-5-8.74,3.62,3.62,0,0,0-3.64-.34.78.78,0,0,1-.26.17,2.26,2.26,0,0,0-1.35.43c-1,.56-1.45,1.64-1.45,3.22a9.08,9.08,0,0,0,1.45,5l.33.51v10l5.43,3.14,1.44-.68Z"/><path class="cls-23" d="M504.67,227.44a3.82,3.82,0,0,0,2.79,1.19,4,4,0,0,0,2.89-1.19,4.45,4.45,0,0,0,1.19-2.54,1.94,1.94,0,0,1,.84,1.52,2.42,2.42,0,0,1-1.44,2,5.81,5.81,0,0,1-3.39.76,6.8,6.8,0,0,1-3.39-.76c-1-.57-1.45-1.22-1.45-2a2,2,0,0,1,.77-1.53A3.49,3.49,0,0,0,504.67,227.44Zm44.69,18.66a2.24,2.24,0,0,1-1.44,2,6.55,6.55,0,0,1-3.4.85,6.69,6.69,0,0,1-3.47-.85,2.23,2.23,0,0,1-1.36-2,2,2,0,0,1,.76-1.53,3.57,3.57,0,0,0,1.19,2.46,3.84,3.84,0,0,0,2.8,1.19,3.93,3.93,0,0,0,2.88-1.19,4.09,4.09,0,0,0,1.19-2.54A2,2,0,0,1,549.36,246.1Z"/><path class="cls-24" d="M515,250.76a2.26,2.26,0,0,0-1.35.43c-1,.56-1.45,1.64-1.45,3.22a9.08,9.08,0,0,0,1.45,5l.33.51v10l5.43,3.14,1.44-.68-5.25-3.05v-9.93c-.12-.22-.23-.42-.34-.59a10,10,0,0,1-1.45-4.92A3.78,3.78,0,0,1,515,250.76Z"/><path class="cls-25" d="M515,250.76a3.78,3.78,0,0,0-1.19,3.14,10,10,0,0,0,1.45,4.92c.11.17.22.37.34.59v9.93l5.25,3.05.17.08v-9.15h.09a3.07,3.07,0,0,0,1.35-.34c1-.57,1.45-1.67,1.45-3.31a10.94,10.94,0,0,0-5-8.74,3.62,3.62,0,0,0-3.64-.34A.78.78,0,0,1,515,250.76Z"/><path class="cls-26" d="M434.15,394.11l4,8.13-.55,2.17.13,8.39a2.93,2.93,0,0,1-.25,1.24l-4.6,10.57a2.46,2.46,0,0,1-2.25,1.47h-8.65l-12-3.95-7-18.35a12.19,12.19,0,0,1,4.34-13.92l3.59-2.6a10.74,10.74,0,0,1,12.17-.32Z"/><path class="cls-27" d="M457.31,693.9l-.9-.69a6.87,6.87,0,0,0-5.25-1.35l-7.7-.2-3.18-11.87-9.95,2.3-.19,11.08-2.11,8c-.12.64-.2,2.82.25,3.29l2,2.1a5,5,0,0,0,2.31,1.34l10.27-2.74L458.1,700c1-.38.88-1.28.88-2.33V697A3.78,3.78,0,0,0,457.31,693.9Z"/><path class="cls-27" d="M422.33,680.59l-.9-.69a6.87,6.87,0,0,0-5.25-1.35l-7.69,1-3.19-13.07-9.95,2.3-.18,11.08-2.12,8c-.11.64-.19,2.82.26,3.29l2,2.1a4.84,4.84,0,0,0,2.3,1.34l10.27-2.74,15.2-5.25c1-.38.89-1.28.89-2.33V684A4.32,4.32,0,0,0,422.33,680.59Z"/><rect class="cls-26" x="410.11" y="422.06" width="12.09" height="19.7" transform="translate(837.55 858.7) rotate(179.3)"/><line class="cls-28" x1="445.3" y1="532.24" x2="444.34" y2="608.67"/><path class="cls-3" d="M394.48,603.18l-3.34-85.37,26.74,7.2-2.69,28.32-.43,3.68-1.11,45.69-5.4,74.4a3.16,3.16,0,0,1-1,2.12l-1,.88a6.05,6.05,0,0,1-5.09,1.5l-3.3-.56a3.84,3.84,0,0,1-3.19-3.76Z"/><path class="cls-29" d="M407.89,529.55l3.1-8.09,32.21-1.29,1.14,17.62v74.26L443,690.73a2.39,2.39,0,0,1-.48,1.4l-.29.38a8.4,8.4,0,0,1-8,3.25l-2.51-.39a4,4,0,0,1-3.35-3.81L426,611.3l-14.25-58.59C406.76,548.48,405.5,539.2,407.89,529.55Z"/><polygon class="cls-27" points="409.19 432.61 423.06 435.6 423.06 432.18 422.45 431.27 409.62 428.42 409.09 429.01 409.19 432.61"/><path class="cls-27" d="M416.45,539.29c-36.85-7-25.1-19-26.95-25.91l.76-31.3-3.69-40.77c-.59-14.78,15.43-11.69,22.61-11.69l20.2,7.07a5.69,5.69,0,0,1,.87.4c6,3.38,6.72,3.84,8.5,5.39,10.47,9,6.4,31.18,4.19,43.94l0,8,2.5,32.15c0,.89,0,1.74,0,2.54C443.28,532.06,434.54,542.76,416.45,539.29Z"/><path class="cls-30" d="M437.92,388a12.43,12.43,0,0,0-17.18-10.05,7.8,7.8,0,0,0-9,1.88,10.64,10.64,0,0,0-1.38,0,11.32,11.32,0,0,0-9.45,14.8,12.29,12.29,0,0,0,.85,15.88,9.42,9.42,0,0,0,0,1.06,8,8,0,0,0,6.4,6.8l1.43,3,8.79,1.09a2.21,2.21,0,0,0,2.21-1.12l4.11-7.35L426,406.8l2-.9,1.42,5.06h1.13v-6.58l2.25-1.37-.65-2.9A12.56,12.56,0,0,0,437.92,388Z"/><polygon class="cls-26" points="503.07 417.91 508.26 409.94 510.72 398.25 517.15 393.64 525.47 384.57 528.3 387.44 521.44 397.02 526.89 403.28 524.87 410.79 517.15 416.94 509.22 426.71 503.07 417.91"/><path class="cls-27" d="M480.53,466.56l-44.48-7.34a8.2,8.2,0,0,1-6.75-9.42h0a8.2,8.2,0,0,1,9.42-6.76l34.95,5.77,31-36.82,11,8.15Z"/><path class="cls-31" d="M780.88,664.42q-18.61.11-31.85,7.74-12.06,7-13.12,16.38a15.78,15.78,0,0,0-.11,1.83,15.45,15.45,0,0,0,.11,1.68V701q1,9.75,13.22,16.79,13.23,7.63,31.75,7.63t31.75-7.53q11.82-6.83,13.18-16.18l.15-10.83,15-8.6,2.13-10.89,19-1.32,3.06-11.4,20.55-2.24,6.72-3.86,3.05-17.61V626l-13.64-7.84-83.64,48.23A73.5,73.5,0,0,0,780.88,664.42ZM779,700.54a12.85,12.85,0,0,1,2.44,1.84,12.92,12.92,0,0,1-2.34,1.73,21.62,21.62,0,0,1-11,2.44A19.86,19.86,0,0,1,757.38,704a13.37,13.37,0,0,1-2.45-1.73,12.9,12.9,0,0,1,2.45-1.73,20.85,20.85,0,0,1,10.78-2.64A22.36,22.36,0,0,1,779,700.54Zm-21.42,7.79-.71-.15a2.92,2.92,0,0,1,.5.05Z"/><path class="cls-32" d="M737.35,688.38v-3.51a16.08,16.08,0,0,0-.11,1.84A15.44,15.44,0,0,0,737.35,688.38Z"/><path class="cls-33" d="M840.53,657.91a3.9,3.9,0,0,1,1.32-2.24h-.05a3.83,3.83,0,0,1,2.39-1l16.13-1.12,2.29-8.54,0-.06a4,4,0,0,1,1.27-2V643a4.19,4.19,0,0,1,2.19-1h0l19.64-2.14,4.38-2.54,2.23-12.82-9.16-5.24-81.6,47.06a3.82,3.82,0,0,1-2.95.41,69.31,69.31,0,0,0-16.39-1.83q-17.42.1-29.81,7.22-10,5.73-11.09,13.28V688a10.79,10.79,0,0,0,.35,2,.75.75,0,0,1,.05.26q2.16,6.39,10.79,11.34c.94.56,1.82,1.07,2.65,1.53s1.44.73,2.08,1l-.15-.05a22.06,22.06,0,0,0,8.5,2.69c1.64.41,3.34.75,5.08,1a2.46,2.46,0,0,1,.41.1,73.59,73.59,0,0,0,11.14.82q17.32.07,29.72-7,8.54-4.9,10.73-11.19c0-.13.07-.25.1-.35a12.69,12.69,0,0,0,.46-3v-.35a11.62,11.62,0,0,0-1.32-5.6v-.05a3.88,3.88,0,0,1-.31-3h-.05a3.91,3.91,0,0,1,1.83-2.39l0-.06L838.8,667Zm1.83,11.7v8.95l2.14-10.88v-9Zm-59.53,29.1a12.47,12.47,0,0,1-2.34,1.73,21.49,21.49,0,0,1-11,2.44,20,20,0,0,1-10.68-2.54,13.77,13.77,0,0,1-2.44-1.73,6.32,6.32,0,0,1-2.14-4.48q0-3.66,4.58-6.2a20.76,20.76,0,0,1,10.78-2.65,22.25,22.25,0,0,1,10.79,2.65c3,1.76,4.48,3.8,4.48,6.1A6.2,6.2,0,0,1,782.83,698.71ZM759,704.66l-.71-.15a2.94,2.94,0,0,1,.51,0A.75.75,0,0,0,759,704.66Zm128.16-51.94,6.72-3.87v-9l-6.72,3.86Zm-23.6,13.63L866.58,655v-9l-3.05,11.4Z"/><path class="cls-34" d="M844.5,667.68l19-1.33v-9l-19,1.32Zm-2.14,1.93-16.79,9.67a15.82,15.82,0,0,1,1.83,7.53v.35l15-8.6Zm-15,17.6a17.36,17.36,0,0,1-.61,4q-2.28,8-12.72,14-13.23,7.63-31.75,7.54a77.45,77.45,0,0,1-12.16-.92,59.39,59.39,0,0,1-12.67-3.41,49.91,49.91,0,0,1-6.91-3.31q-10.43-6-12.67-14a14.9,14.9,0,0,1-.56-2.75v8.91q1,9.74,13.23,16.79,13.21,7.62,31.74,7.63t31.75-7.53q11.83-6.82,13.18-16.18Zm-44.57,11.5a6.2,6.2,0,0,0,2-4.68c0-2.3-1.5-4.34-4.48-6.1a22.25,22.25,0,0,0-10.79-2.65,20.76,20.76,0,0,0-10.78,2.65q-4.58,2.54-4.58,6.2a6.32,6.32,0,0,0,2.14,4.48,12.39,12.39,0,0,1,2.44-1.73,20.86,20.86,0,0,1,10.78-2.65,22.25,22.25,0,0,1,10.79,2.65A12.52,12.52,0,0,1,782.83,698.71ZM896.9,622.29l-3,17.61v9l3-17.6Zm-9.77,21.47L866.58,646v9l20.55-2.24Z"/><path class="cls-35" d="M840.53,657.91,838.8,667l-15.27,8.74,0,.06a3.91,3.91,0,0,0-1.83,2.39h.05a3.88,3.88,0,0,0,.31,3v.05a11.62,11.62,0,0,1,1.32,5.6v.35a12.69,12.69,0,0,1-.46,3c0,.1-.07.22-.1.35q-2.19,6.28-10.73,11.19-12.39,7.11-29.72,7a73.59,73.59,0,0,1-11.14-.82,2.46,2.46,0,0,0-.41-.1c-1.74-.27-3.44-.61-5.08-1a22.06,22.06,0,0,1-8.5-2.69l.15.05c-.64-.29-1.33-.63-2.08-1s-1.71-1-2.65-1.53q-8.62-4.93-10.79-11.34a.75.75,0,0,0-.05-.26,10.79,10.79,0,0,1-.35-2v-2.65q1.11-7.55,11.09-13.28,12.39-7.11,29.81-7.22a69.31,69.31,0,0,1,16.39,1.83,3.82,3.82,0,0,0,2.95-.41l81.6-47.06,9.16,5.24-2.23,12.82-4.38,2.54-19.64,2.14h0a4.19,4.19,0,0,0-2.19,1v-.05a4,4,0,0,0-1.27,2l0,.06-2.29,8.54-16.13,1.12a3.83,3.83,0,0,0-2.39,1h.05A3.9,3.9,0,0,0,840.53,657.91Zm4,.81,19-1.32,3.05-11.4,20.55-2.24,6.72-3.86,3-17.61-13.64-7.83-83.64,48.23a73,73,0,0,0-17.3-1.93q-18.62.11-31.85,7.73-12.06,7-13.12,16.38v3.51a14.9,14.9,0,0,0,.56,2.75q2.25,8,12.67,14a49.91,49.91,0,0,0,6.91,3.31,59.39,59.39,0,0,0,12.67,3.41,77.45,77.45,0,0,0,12.16.92q18.52.09,31.75-7.54,10.44-6,12.72-14a17.36,17.36,0,0,0,.61-4v-.4a15.82,15.82,0,0,0-1.83-7.53l16.79-9.67Z"/><polygon class="cls-36" points="857.52 299.55 857.4 339.29 845.7 346.09 845.81 306.34 857.52 299.55"/><path class="cls-37" d="M779.7,172.36c4.24-2.47,10.13-2.11,16.62,1.64l74.11,42.79c12.91,7.44,23.33,25.5,23.29,40.33l-.1,36.38c0,7.36-2.63,12.55-6.82,15l-11.7,6.8c4.2-2.43,6.8-7.62,6.82-15l.1-36.37c.05-14.84-10.38-32.89-23.28-40.34l-74.12-42.79c-6.49-3.74-12.36-4.09-16.62-1.62Z"/><path class="cls-27" d="M784.62,180.79c-12.9-7.45-23.39-1.47-23.43,13.36l-.1,36.38c0,14.83,10.38,32.89,23.27,40.33l26.86,15.51,34.48,59.72.11-39.75,12.67,7.31c12.9,7.45,23.39,1.47,23.44-13.36l.1-36.37c.05-14.84-10.38-32.89-23.28-40.34Z"/><path class="cls-38" d="M788.35,216.34c4.82,2.78,8.71,9.52,8.69,15s-3.93,7.75-8.74,5-8.69-9.51-8.68-15S783.55,213.57,788.35,216.34Z"/><path class="cls-38" d="M821.26,235.58c4.82,2.78,8.7,9.51,8.68,15s-3.92,7.75-8.74,5-8.7-9.5-8.69-15S816.44,232.8,821.26,235.58Z"/><path class="cls-38" d="M854.2,254.59c4.8,2.78,8.69,9.52,8.67,15s-3.92,7.75-8.72,5-8.71-9.5-8.7-15S849.38,251.82,854.2,254.59Z"/><path class="cls-39" d="M103.1,440.28V365.51a15.75,15.75,0,0,1,8.41-14.58l80.93-46.73,51-29.47c2.8-1.55,4.92-1.93,6.35-1.16l9.61,5.64q-2-1.15-6.21,1.16l-131.91,76.2a15.75,15.75,0,0,0-8.41,14.57v74.23c0,2.93.56,4.86,1.7,5.82l-9.93-5.73Q103.2,444,103.1,440.28Z"/><path class="cls-40" d="M259.52,279.21h-.14c-1.36-.77-3.44-.38-6.21,1.16l-131.91,76.2a15.76,15.76,0,0,0-8.41,14.57v74.23c0,2.92.57,4.87,1.7,5.82a1.26,1.26,0,0,0,.36.27c1.43.84,3.54.44,6.35-1.17l71.22-41.14,60.69-35a15.78,15.78,0,0,0,8.41-14.58V285.29C261.58,282,260.9,280,259.52,279.21Zm-11.09,80.93q-3.41,6.45-8.32,9.22L135.57,429.63c-3.17,1.92-5.91,2-8.23.18s-3.4-4.7-3.4-8.94v-2.06a23.54,23.54,0,0,1,3.22-11.45,19.71,19.71,0,0,1,7.69-8.31l101.51-58.58h.27l3.48-2.15c3.28-1.84,6-1.91,8.32-.18a9.92,9.92,0,0,1,2.24,3.4h.26a17.33,17.33,0,0,1,.81,5.64A28.92,28.92,0,0,1,248.43,360.14Zm0-36.84c-2.27,4.29-5,7.37-8.32,9.21L135.57,392.79c-3.17,1.91-5.91,2-8.23.18s-3.4-4.71-3.4-9v-2a23.49,23.49,0,0,1,3.22-11.45,19.74,19.74,0,0,1,7.69-8.32l101.51-58.58h.27l3.48-2.14c3.28-1.85,6-1.92,8.32-.18a9.86,9.86,0,0,1,2.24,3.39h.26a17.33,17.33,0,0,1,.81,5.64A29,29,0,0,1,248.43,323.3Z"/><path class="cls-16" d="M243.87,340.2c-2-1.43-4.44-1.34-7.24.27h-.27L134.85,399.05a19.71,19.71,0,0,0-7.69,8.31,23.54,23.54,0,0,0-3.22,11.45v1c.18,3.27,1.25,5.58,3.22,6.88s4.65,1.22,7.69-.62l101.33-58.31a20.51,20.51,0,0,0,7.69-8.41,23.49,23.49,0,0,0,3.22-11.45C247.09,344.13,246,341.58,243.87,340.2Zm-103.3,74.59-2.23,3a22.68,22.68,0,0,1-2.51-3.13,48.81,48.81,0,0,1-2.32,5.9l-2.15-.54c1.38-2.8,2.33-4.7,2.86-5.72-1.55.54-3,1-4.38,1.43l.9-3.49a20.91,20.91,0,0,1,4.2-.35c-.23-2.38-.36-4.08-.36-5.1l2.6-1.52c0,1.43-.13,3.27-.36,5.54q1.88-2.22,4.29-4.56l.89,2.51a42,42,0,0,1-4.65,3.75A12.81,12.81,0,0,1,140.57,414.79Zm15.92-9.3-2.14,3a18.58,18.58,0,0,1-2.51-3q-1.34,3.75-2.32,5.9l-2.15-.54c1.43-2.86,2.42-4.77,2.95-5.72a42.63,42.63,0,0,1-4.38,1.43l.8-3.49a30.41,30.41,0,0,1,4.12-.45c-.18-2.32-.27-4-.27-5l2.68-1.52a34.41,34.41,0,0,1-.53,5.36,50.21,50.21,0,0,1,4.38-4.38l.8,2.5a40.36,40.36,0,0,1-4.47,3.76A13.06,13.06,0,0,1,156.49,405.49Zm16-9.22-2.14,3.05a19.61,19.61,0,0,1-2.42-3.13,56.06,56.06,0,0,1-2.41,5.9l-2.15-.54c1.38-2.81,2.38-4.7,3-5.72-1.66.59-3.18,1.07-4.56,1.43l.89-3.49a22,22,0,0,1,4.21-.36c-.18-2.38-.27-4.06-.27-5l2.5-1.61a43.72,43.72,0,0,1-.44,5.55c1.3-1.49,2.73-3,4.29-4.47l.89,2.41a28.21,28.21,0,0,1-4.56,3.76A11.48,11.48,0,0,1,172.5,396.27ZM187,384.11a13.12,13.12,0,0,1,2.95,2.06l-2.15,2.95a.08.08,0,0,1-.08-.09,14.38,14.38,0,0,1-2.42-2.86,2.58,2.58,0,0,1-.27.71c-.77,2.15-1.46,3.89-2.05,5.19l-2.24-.54c1.48-2.91,2.5-4.82,3-5.72-1.56.54-3,1-4.38,1.34l.8-3.4a29.64,29.64,0,0,1,3.67-.53h.45c-.18-2.1-.27-3.63-.27-4.65v-.27l2.68-1.52a34.41,34.41,0,0,1-.53,5.36,62.37,62.37,0,0,1,4.38-4.47l.8,2.6a14.86,14.86,0,0,1-1.52,1.34A26.36,26.36,0,0,1,186.9,384Zm19.94-12.7a36.81,36.81,0,0,1-4.11,3.31.34.34,0,0,1,.18.09A13.24,13.24,0,0,1,206,377l-2.15,3a28.53,28.53,0,0,1-2.41-3.13,2.57,2.57,0,0,0-.36.89,34.27,34.27,0,0,1-2.06,5h-.26l-1.88-.54a49.13,49.13,0,0,1,3-5.72c-1.67.54-3.19,1-4.56,1.34l.89-3.4a20.4,20.4,0,0,1,3.67-.44h.53c-.17-2.2-.26-3.8-.26-4.74v-.18l2.5-1.61a40.16,40.16,0,0,1-.45,5.45V373a12,12,0,0,1,1.88-2l2-2.05a1.43,1.43,0,0,1,.45-.54l.89,2.5Zm15.92-4-2.14,2.95-.36-.36a15.86,15.86,0,0,1-2.06-2.68v.09c-.12.3-.27.62-.45,1a45.36,45.36,0,0,1-2,4.83l-2.15-.54a50.78,50.78,0,0,1,3-5.72c-1.07.36-2.11.68-3.13,1l-1.43.36.89-3.49h.36c1.13-.17,2.11-.3,2.95-.35h.9c-.13-1.61-.18-2.92-.18-3.94a7.28,7.28,0,0,1-.09-1l2.5-1.61a41.37,41.37,0,0,1-.35,4.74,5.14,5.14,0,0,1-.09.8c1.12-1.25,2.36-2.5,3.66-3.75a4,4,0,0,1,.63-.81l.89,2.51a28.66,28.66,0,0,1-4.56,3.75A11.57,11.57,0,0,1,222.85,367.39Zm13-11.45a11.49,11.49,0,0,1,3.13,2.24L236.8,361a15.24,15.24,0,0,1-2.14-2.33c-.13-.18-.27-.39-.45-.62a48.81,48.81,0,0,1-2.32,5.9l-2.15-.54q2.14-4.29,2.95-5.72c-.84.3-1.66.57-2.5.8-.59.18-1.22.36-1.88.54l.71-3.49a9.39,9.39,0,0,1,1.08-.09,22.39,22.39,0,0,1,3.22-.35c-.18-2.38-.27-4-.27-4.92l2.59-1.52c0,1.43-.21,3.25-.45,5.45q1.89-2.22,4.3-4.56l.89,2.59A46.83,46.83,0,0,1,235.82,355.94Z"/><path class="cls-16" d="M243.87,303.35c-2-1.43-4.44-1.34-7.24.27h-.27L134.85,362.2a19.74,19.74,0,0,0-7.69,8.32A23.49,23.49,0,0,0,123.94,382v1c.18,3.27,1.25,5.58,3.22,6.89s4.65,1.21,7.69-.63L236.18,330.9a20.51,20.51,0,0,0,7.69-8.41A23.49,23.49,0,0,0,247.09,311Q247.09,305.42,243.87,303.35Zm-103.3,74.59-2.23,3a22.08,22.08,0,0,1-2.51-3.13,48.15,48.15,0,0,1-2.32,5.9l-2.15-.53c1.38-2.81,2.33-4.71,2.86-5.73-1.55.54-3,1-4.38,1.43l.9-3.48a21.11,21.11,0,0,1,4.2-.36c-.23-2.38-.36-4.08-.36-5.1l2.6-1.52c0,1.43-.13,3.27-.36,5.55a61,61,0,0,1,4.29-4.57L142,372a40.9,40.9,0,0,1-4.65,3.75A12.81,12.81,0,0,1,140.57,377.94Zm15.92-9.3-2.14,3a18.16,18.16,0,0,1-2.51-3q-1.34,3.75-2.32,5.9l-2.15-.53c1.43-2.87,2.42-4.78,2.95-5.73a40.32,40.32,0,0,1-4.38,1.43l.8-3.48a28.83,28.83,0,0,1,4.12-.45c-.18-2.33-.27-4-.27-5l2.68-1.52a34.64,34.64,0,0,1-.53,5.37,50.25,50.25,0,0,1,4.38-4.39l.8,2.51a40.23,40.23,0,0,1-4.47,3.75A13.38,13.38,0,0,1,156.49,368.64Zm16-9.21-2.14,3a19.16,19.16,0,0,1-2.42-3.13,56.06,56.06,0,0,1-2.41,5.9l-2.15-.54c1.38-2.8,2.38-4.7,3-5.72-1.66.59-3.18,1.07-4.56,1.43l.89-3.49a21,21,0,0,1,4.21-.35c-.18-2.38-.27-4.06-.27-5l2.5-1.61a43.72,43.72,0,0,1-.44,5.54c1.3-1.48,2.73-3,4.29-4.47l.89,2.42a28.66,28.66,0,0,1-4.56,3.75A11.57,11.57,0,0,1,172.5,359.43ZM187,347.27a12.67,12.67,0,0,1,2.95,2.05l-2.15,2.95s-.08,0-.08-.09a14.09,14.09,0,0,1-2.42-2.86,2.64,2.64,0,0,1-.27.72c-.77,2.14-1.46,3.88-2.05,5.18l-2.24-.53c1.48-2.92,2.5-4.83,3-5.73-1.56.54-3,1-4.38,1.35l.8-3.4a28.18,28.18,0,0,1,3.67-.54h.45c-.18-2.09-.27-3.63-.27-4.65v-.27l2.68-1.52a34.64,34.64,0,0,1-.53,5.37,60.35,60.35,0,0,1,4.38-4.47l.8,2.59a14.86,14.86,0,0,1-1.52,1.34,26.47,26.47,0,0,1-2.95,2.42Zm19.94-12.7a37.82,37.82,0,0,1-4.11,3.3.34.34,0,0,1,.18.09,13.58,13.58,0,0,1,2.95,2.15l-2.15,3a27.59,27.59,0,0,1-2.41-3.13,2.61,2.61,0,0,0-.36.9,34.08,34.08,0,0,1-2.06,5h-.26l-1.88-.53a49.54,49.54,0,0,1,3-5.73c-1.67.54-3.19,1-4.56,1.34l.89-3.39a19.69,19.69,0,0,1,3.67-.45h.53c-.17-2.2-.26-3.79-.26-4.74v-.18l2.5-1.61a40.29,40.29,0,0,1-.45,5.46v.09a11.66,11.66,0,0,1,1.88-2l2-2.06a1.51,1.51,0,0,1,.45-.54l.89,2.51Zm15.92-4-2.14,2.95-.36-.36a15.86,15.86,0,0,1-2.06-2.68v.09a10.23,10.23,0,0,1-.45,1,43.67,43.67,0,0,1-2,4.83l-2.15-.53a51.21,51.21,0,0,1,3-5.73c-1.07.36-2.11.68-3.13,1l-1.43.36.89-3.49h.36c1.13-.18,2.11-.31,2.95-.36h.9c-.13-1.61-.18-2.92-.18-3.94a7,7,0,0,1-.09-1l2.5-1.61a41.22,41.22,0,0,1-.35,4.74,5.39,5.39,0,0,1-.09.81c1.12-1.26,2.36-2.51,3.66-3.76a4.61,4.61,0,0,1,.63-.81l.89,2.51a28.74,28.74,0,0,1-4.56,3.76A11.26,11.26,0,0,1,222.85,330.54Zm13-11.45a11.72,11.72,0,0,1,3.13,2.24l-2.15,2.86a15.08,15.08,0,0,1-2.14-2.32c-.13-.18-.27-.4-.45-.63a48.81,48.81,0,0,1-2.32,5.9l-2.15-.53q2.14-4.31,2.95-5.73c-.84.31-1.66.57-2.5.81-.59.18-1.22.35-1.88.53l.71-3.48a7.57,7.57,0,0,1,1.08-.09,21.32,21.32,0,0,1,3.22-.36c-.18-2.38-.27-4-.27-4.92l2.59-1.52c0,1.43-.21,3.25-.45,5.45q1.89-2.22,4.3-4.56l.89,2.6A48.12,48.12,0,0,1,235.82,319.09Z"/><path class="cls-41" d="M250.93,304.69h-.26a9.86,9.86,0,0,0-2.24-3.39c-2.27-1.74-5-1.67-8.32.18l-3.48,2.14c2.8-1.61,5.22-1.7,7.24-.27s3.22,3.94,3.22,7.69a23.49,23.49,0,0,1-3.22,11.45,20.51,20.51,0,0,1-7.69,8.41L134.85,389.21c-3,1.84-5.6,2.06-7.69.63s-3-3.62-3.22-6.89V384c0,4.24,1.13,7.21,3.4,9s5.06,1.73,8.23-.18l104.54-60.28c3.28-1.84,6-4.92,8.32-9.21a29,29,0,0,0,3.31-13A17.33,17.33,0,0,0,250.93,304.69Zm0,36.85h-.26a9.92,9.92,0,0,0-2.24-3.4c-2.27-1.73-5-1.66-8.32.18l-3.48,2.15c2.8-1.61,5.22-1.7,7.24-.27s3.22,3.93,3.22,7.69a23.49,23.49,0,0,1-3.22,11.45,20.51,20.51,0,0,1-7.69,8.41L134.85,426.06q-4.56,2.76-7.69.62c-2-1.3-3-3.61-3.22-6.88v1.07c0,4.24,1.13,7.21,3.4,8.94s5.06,1.74,8.23-.18l104.54-60.27q4.92-2.78,8.32-9.22a28.92,28.92,0,0,0,3.31-13A17.33,17.33,0,0,0,250.93,341.54Z"/><path class="cls-42" d="M207.38,334.12l-.89-2.51a1.51,1.51,0,0,0-.45.54l-2,2.06a11.66,11.66,0,0,0-1.88,2v-.09a40.29,40.29,0,0,0,.45-5.46l-2.5,1.61v.18c0,.95.09,2.54.26,4.74h-.53a19.69,19.69,0,0,0-3.67.45l-.89,3.39c1.37-.35,2.89-.8,4.56-1.34a49.54,49.54,0,0,0-3,5.73l1.88.53H199a34.08,34.08,0,0,0,2.06-5,2.61,2.61,0,0,1,.36-.9,27.59,27.59,0,0,0,2.41,3.13l2.15-3A13.58,13.58,0,0,0,203,338a.34.34,0,0,0-.18-.09,37.82,37.82,0,0,0,4.11-3.3Zm16.9-9.57-.89-2.51a4.61,4.61,0,0,0-.63.81c-1.3,1.25-2.54,2.5-3.66,3.76a5.39,5.39,0,0,0,.09-.81,41.22,41.22,0,0,0,.35-4.74l-2.5,1.61a7,7,0,0,0,.09,1c0,1,.05,2.33.18,3.94h-.9c-.84.05-1.82.18-2.95.36h-.36l-.89,3.49,1.43-.36c1-.31,2.06-.63,3.13-1a51.21,51.21,0,0,0-3,5.73l2.15.53a43.67,43.67,0,0,0,2-4.83,10.23,10.23,0,0,0,.45-1v-.09a15.86,15.86,0,0,0,2.06,2.68l.36.36,2.14-2.95a11.26,11.26,0,0,0-3.13-2.23A28.74,28.74,0,0,0,224.28,324.55Zm16.1-9.21-.89-2.6q-2.42,2.34-4.3,4.56c.24-2.2.4-4,.45-5.45l-2.59,1.52c0,.89.09,2.54.27,4.92a21.32,21.32,0,0,0-3.22.36,7.57,7.57,0,0,0-1.08.09l-.71,3.48c.66-.18,1.29-.35,1.88-.53.84-.24,1.66-.5,2.5-.81q-.81,1.42-2.95,5.73l2.15.53a48.81,48.81,0,0,0,2.32-5.9c.18.23.32.45.45.63a15.08,15.08,0,0,0,2.14,2.32l2.15-2.86a11.72,11.72,0,0,0-3.13-2.24A48.12,48.12,0,0,0,240.38,315.34Zm0,36.84-.89-2.59q-2.42,2.34-4.3,4.56c.24-2.2.4-4,.45-5.45l-2.59,1.52c0,.89.09,2.54.27,4.92a22.39,22.39,0,0,0-3.22.35,9.39,9.39,0,0,0-1.08.09l-.71,3.49c.66-.18,1.29-.36,1.88-.54.84-.23,1.66-.5,2.5-.8q-.81,1.42-2.95,5.72l2.15.54a48.81,48.81,0,0,0,2.32-5.9c.18.23.32.44.45.62A15.24,15.24,0,0,0,236.8,361l2.15-2.86a11.49,11.49,0,0,0-3.13-2.24A46.83,46.83,0,0,0,240.38,352.18Zm-53.48-5a26.47,26.47,0,0,0,2.95-2.42,14.86,14.86,0,0,0,1.52-1.34l-.8-2.59a60.35,60.35,0,0,0-4.38,4.47,34.64,34.64,0,0,0,.53-5.37L184,341.45v.27c0,1,.09,2.56.27,4.65h-.45a28.18,28.18,0,0,0-3.67.54l-.8,3.4c1.38-.36,2.82-.81,4.38-1.35-.54.9-1.56,2.81-3,5.73l2.24.53c.59-1.3,1.28-3,2.05-5.18a2.64,2.64,0,0,0,.27-.72,14.09,14.09,0,0,0,2.42,2.86c0,.06,0,.09.08.09l2.15-2.95a12.67,12.67,0,0,0-2.95-2.05Zm-13,6.26L173,351c-1.56,1.49-3,3-4.29,4.47a43.72,43.72,0,0,0,.44-5.54l-2.5,1.61c0,.95.09,2.63.27,5a21,21,0,0,0-4.21.35l-.89,3.49c1.38-.36,2.9-.84,4.56-1.43-.66,1-1.66,2.92-3,5.72l2.15.54a56.06,56.06,0,0,0,2.41-5.9,19.16,19.16,0,0,0,2.42,3.13l2.14-3a11.57,11.57,0,0,0-3.13-2.24A28.66,28.66,0,0,0,173.93,353.44Zm50.35,8-.89-2.51a4,4,0,0,0-.63.81c-1.3,1.25-2.54,2.5-3.66,3.75a5.14,5.14,0,0,0,.09-.8,41.37,41.37,0,0,0,.35-4.74l-2.5,1.61a7.28,7.28,0,0,0,.09,1c0,1,.05,2.33.18,3.94h-.9c-.84.05-1.82.18-2.95.35h-.36l-.89,3.49,1.43-.36c1-.3,2.06-.62,3.13-1a50.78,50.78,0,0,0-3,5.72l2.15.54a45.36,45.36,0,0,0,2-4.83c.18-.36.33-.68.45-1v-.09a15.86,15.86,0,0,0,2.06,2.68l.36.36,2.14-2.95a11.57,11.57,0,0,0-3.13-2.24A28.66,28.66,0,0,0,224.28,361.4ZM142,408.8l-.89-2.51q-2.42,2.34-4.29,4.56c.23-2.27.36-4.11.36-5.54l-2.6,1.52c0,1,.13,2.72.36,5.1a20.91,20.91,0,0,0-4.2.35l-.9,3.49c1.38-.41,2.83-.89,4.38-1.43-.53,1-1.48,2.92-2.86,5.72l2.15.54a48.81,48.81,0,0,0,2.32-5.9,22.68,22.68,0,0,0,2.51,3.13l2.23-3a12.81,12.81,0,0,0-3.22-2.24A42,42,0,0,0,142,408.8Zm15.92-9.22-.8-2.5a50.21,50.21,0,0,0-4.38,4.38,34.41,34.41,0,0,0,.53-5.36l-2.68,1.52c0,1,.09,2.68.27,5a30.41,30.41,0,0,0-4.12.45l-.8,3.49a42.63,42.63,0,0,0,4.38-1.43c-.53.95-1.52,2.86-2.95,5.72l2.15.54q1-2.14,2.32-5.9a18.58,18.58,0,0,0,2.51,3l2.14-3a13.06,13.06,0,0,0-3-2.15A40.36,40.36,0,0,0,157.92,399.58ZM142,372l-.89-2.51a61,61,0,0,0-4.29,4.57c.23-2.28.36-4.12.36-5.55l-2.6,1.52c0,1,.13,2.72.36,5.1a21.11,21.11,0,0,0-4.2.36l-.9,3.48c1.38-.41,2.83-.89,4.38-1.43-.53,1-1.48,2.92-2.86,5.73l2.15.53a48.15,48.15,0,0,0,2.32-5.9,22.08,22.08,0,0,0,2.51,3.13l2.23-3a12.81,12.81,0,0,0-3.22-2.24A40.9,40.9,0,0,0,142,372Zm15.92-9.21-.8-2.51a50.25,50.25,0,0,0-4.38,4.39,34.64,34.64,0,0,0,.53-5.37l-2.68,1.52c0,1,.09,2.68.27,5a28.83,28.83,0,0,0-4.12.45l-.8,3.48a40.32,40.32,0,0,0,4.38-1.43c-.53,1-1.52,2.86-2.95,5.73l2.15.53q1-2.15,2.32-5.9a18.16,18.16,0,0,0,2.51,3l2.14-3a13.38,13.38,0,0,0-3-2.15A40.23,40.23,0,0,0,157.92,362.74Zm16,27.54-.89-2.41c-1.56,1.48-3,3-4.29,4.47a43.72,43.72,0,0,0,.44-5.55l-2.5,1.61c0,1,.09,2.63.27,5a22,22,0,0,0-4.21.36l-.89,3.49c1.38-.36,2.9-.84,4.56-1.43-.66,1-1.66,2.91-3,5.72l2.15.54a56.06,56.06,0,0,0,2.41-5.9,19.61,19.61,0,0,0,2.42,3.13l2.14-3.05a11.48,11.48,0,0,0-3.13-2.23A28.21,28.21,0,0,0,173.93,390.28ZM207.38,371l-.89-2.5a1.43,1.43,0,0,0-.45.54l-2,2.05a12,12,0,0,0-1.88,2v-.09a40.16,40.16,0,0,0,.45-5.45l-2.5,1.61v.18c0,.94.09,2.54.26,4.74h-.53a20.4,20.4,0,0,0-3.67.44l-.89,3.4c1.37-.36,2.89-.8,4.56-1.34a49.13,49.13,0,0,0-3,5.72l1.88.54H199a34.27,34.27,0,0,0,2.06-5,2.57,2.57,0,0,1,.36-.89A28.53,28.53,0,0,0,203.8,380l2.15-3a13.24,13.24,0,0,0-2.95-2.15.34.34,0,0,0-.18-.09,36.81,36.81,0,0,0,4.11-3.31ZM186.9,384a26.36,26.36,0,0,0,2.95-2.41,14.86,14.86,0,0,0,1.52-1.34l-.8-2.6a62.37,62.37,0,0,0-4.38,4.47,34.41,34.41,0,0,0,.53-5.36L184,378.3v.27c0,1,.09,2.55.27,4.65h-.45a29.64,29.64,0,0,0-3.67.53l-.8,3.4c1.38-.36,2.82-.8,4.38-1.34-.54.9-1.56,2.81-3,5.72l2.24.54c.59-1.3,1.28-3,2.05-5.19a2.58,2.58,0,0,0,.27-.71,14.38,14.38,0,0,0,2.42,2.86.08.08,0,0,0,.08.09l2.15-2.95a13.12,13.12,0,0,0-2.95-2.06Z"/><path class="cls-43" d="M158.17,649.69v6.76c-6.34-1.14-10.46-2-12.36-2.4q-4.67-.87-4.66-5.09,0-12.8,2.33-16.14a8.52,8.52,0,0,1,2.76-2.33v18q7.27.72,11.93,1.16v-.58l1.31.73A5.24,5.24,0,0,1,158.17,649.69ZM283.6,631.07l-.51,1.53c0-.55.06-1.08.07-1.6Zm-9.38-17a3.56,3.56,0,0,1,.73,1.6,1.16,1.16,0,0,0,1.16.58c.68,0,1,.15,1,.44s-.24.87-.44,1.74v.15L271.6,618v-5.31Zm-117.94,1.31,1.16-.88v2.62L153,618ZM188,669.76l12.22,2.76,2.91,8.73q17.14,0,23.84-.44v-.07q.08-1.77,3.93-7.93l11.64-2.76,14.68,4.07q4.51-3.06,6.55-4.51a72.92,72.92,0,0,0,6.11-4.94V651.29c2.54-.6,5.42-1.14,8.65-1.6q-.72,3-1.38,6l-4.95.37a.46.46,0,0,0-.29.14,2,2,0,0,0-.29,1.31,6.31,6.31,0,0,0,1.17,2.91c1,1.45,1.5,2.28,1.6,2.47l.29.88a15.27,15.27,0,0,1,.14,2q0,2.63-8,8.44-7.41,5.67-9.6,5.67a54.26,54.26,0,0,1-7.41-2,58.1,58.1,0,0,0-7.42-1.89,29.93,29.93,0,0,0-4.8.87l-3.34,1a46.34,46.34,0,0,0-2.33,5.24,5.61,5.61,0,0,1-2.62,2.76q-2.61,1.17-20.5,1.16-7.86,0-8.87-.87-.15-.13-3.64-8.58c-4.36-1.26-7.13-1.89-8.29-1.89a38,38,0,0,0-6.69,1.89l-5.38,1.89c.1.2-.44.29-1.6.29h-1l-.58-.29q-1.17-.29-17.16-9.74a2.08,2.08,0,0,1-.87-1.46,1.24,1.24,0,0,0-1.31-.87c-.68,0-1-.14-.88-.44a11.59,11.59,0,0,0,.44-1.88,4.51,4.51,0,0,1,.44-2,24.07,24.07,0,0,1,4.8-5.24v6.84l16.14,9.45Zm36.56-136.11v-3.71l1.75.94a3.47,3.47,0,0,1,.58,1c.1.29.39.44.87.44s.68.1.58.29a8.1,8.1,0,0,1-.14,1.16V534Zm-77.08,26c-4.35-.79-7.16-1.33-8.43-1.6q-3.19-.74-3.2-3.49,0-8.73,1.75-11.05a5.4,5.4,0,0,1,1.88-1.6v12.5c3.21.39,5.87.68,8,.87v-.43l.88.43h-.88ZM167.68,569l8.43,1.74,1.89,6q11.64,0,16.15-.29c.1-.77,1-2.57,2.76-5.38l7.85-1.89,10,2.76c2-1.35,3.54-2.37,4.51-3a46.1,46.1,0,0,0,4.07-3.49v-9a80.83,80.83,0,0,1,9-1.45V544.26c0-.64.06-1.26.08-1.89.51.11,1,.2,1.52.29q2.19.44,2.19,2.19v4.65a29.22,29.22,0,0,1-.29,6.25c-.2,1.46-.54,2.28-1,2.47-1.07.39-4.36.78-9.89,1.17l-.15.14c-.19.1-.29.39-.29.87a3.5,3.5,0,0,0,.88,1.9,19.48,19.48,0,0,0,1,1.74l.15.58a8,8,0,0,1,.14,1.46q0,1.74-5.38,5.67-5.09,3.78-6.54,3.78a40.65,40.65,0,0,1-5.09-1.31,37.81,37.81,0,0,0-5-1.31,15.93,15.93,0,0,0-3.2.73l-2.47.58c-.48,1.07-1,2.28-1.45,3.64a3.67,3.67,0,0,1-1.89,1.74q-1.75.87-13.82.88c-3.59,0-5.62-.2-6.11-.59-.09-.09-.92-2.08-2.47-6a30.73,30.73,0,0,0-5.53-1.16,21.72,21.72,0,0,0-4.65,1.31l-3.63,1.31c.09.09-.25.14-1,.14h-.73a1,1,0,0,0-.44-.14q-.72-.3-11.63-6.7c-.29-.09-.49-.43-.58-1a1,1,0,0,0-.88-.59c-.48,0-.67-.09-.58-.29a6.18,6.18,0,0,0,.3-1.31,2.89,2.89,0,0,1,.28-1.3,13.6,13.6,0,0,1,3.2-3.64v4.94l11.06,6.4Zm55.26-15c.19.29.34.53.44.72a.43.43,0,0,0-.15.3ZM143.1,533.94c-.1-.1.1-.15.58-.15l2.48-2q.43-.35.87-.66v2.11Zm52.65,11.78a21.68,21.68,0,0,0-9.17-1.75,22,22,0,0,0-9.3,1.75,12.44,12.44,0,0,0-1.38.72,1.35,1.35,0,0,1-.37-.14,12.5,12.5,0,0,1-3.05-1.89,14.2,14.2,0,0,1,3.92-2.47,29,29,0,0,1,7.86-1.61,25,25,0,0,1,8.14.44,15.21,15.21,0,0,1,8.29,3.64,16.19,16.19,0,0,1-3.2,1.89l-.29.14C196.77,546.2,196.28,546,195.75,545.72Zm36.15,90.73-.8.44a14.74,14.74,0,0,0-1.82-1,37.1,37.1,0,0,0-27.34,0,14.74,14.74,0,0,0-1.82,1l-.8-.44a22.47,22.47,0,0,1-4.36-2.76,23.85,23.85,0,0,1,5.82-3.63,39.23,39.23,0,0,1,11.49-2.48,34.51,34.51,0,0,1,11.92.88q8.15,1.31,12.22,5.23A27.31,27.31,0,0,1,231.9,636.45Zm37.38,11.35.58,1.16a1.45,1.45,0,0,0-.29.44Z"/><path class="cls-44" d="M283.09,632.6c-.07.26-.14.53-.22.8q-2.78.45-5.16.87-4.8.74-8.43,1.6l-3.93,5.38q1.89,3.06,3.93,6.55l.29,1.6a55.11,55.11,0,0,1-5.82,4.51q-2,1.59-6.55,4.65l-14.68-4.07-11.64,2.62c-2.62,4.17-3.93,6.83-3.93,8q-6.67.57-23.84.58l-2.91-8.88L188,654.2l-13.67,4.22-14.83-8.58-1.31-.73,3.34-3.49,4.51-4.51-4.51-6.69c-2-.2-4.8-.44-8.29-.73q-3-.44-7-.87v-2.33q.15-7.89,1.16-11.34L153,618l4.44-.88,3.93-.72,5.67-5.68-9.6-6.69q9.88-6.24,18.32-11l10.47,4.95,14.11-3.35.87-7.27q11.49-.74,25-.87l3.63,8.29,14.26,2.76,10.61-4.22,16.87,9.17-7.41,8.43,6.68,7,.73.15,5.09.58,6.55.72v6.26c0,1.71,0,3.53-.08,5.45C283.15,631.52,283.13,632.05,283.09,632.6Zm-123.7-116,7.27,3.49,9.45-2.33.59-4.94q7.85-.58,17-.58l2.62,5.67,9.6,1.89,7.27-2.91,11.34,6.26-4.94,5.67L224,533.5h.15v.15h.43l3.64.36,4.36.51v4.22c0,1.17,0,2.38-.07,3.63,0,.63,0,1.25-.08,1.89-1.26.1-2.47.24-3.63.44-2.13.39-4.07.77-5.82,1.16l-2.61,3.64q1.3,2,2.61,4.51l.29,1q-1.46,1.31-3.92,3.19c-1,.68-2.48,1.7-4.51,3.06l-10-2.77-7.85,1.89q-2.61,4.23-2.76,5.38-4.52.3-16.15.3l-1.89-6-8.43-1.75-9.16,2.91-10.18-6-.88-.43,2.33-2.33,3.06-3.2-3.06-4.5q-2.17-.15-5.67-.44c-1.45-.2-3-.39-4.66-.58v-1.89a43.4,43.4,0,0,1,.59-7.42l3-.58,3.93-.73,2.61-.58,3.93-3.78L147,524.19Q153.72,520,159.39,516.63Zm43.34,20.65q-1.75-5.67-10.33-7.13a25,25,0,0,0-8.14-.43,29,29,0,0,0-7.86,1.6q-6,2.61-6.54,7.27a6.89,6.89,0,0,0,2.62,5.82,12.5,12.5,0,0,0,3.05,1.89,1.35,1.35,0,0,0,.37.14,21.59,21.59,0,0,0,10.54,2.33,22.81,22.81,0,0,0,10.76-2.33l.29-.14a16.19,16.19,0,0,0,3.2-1.89A6.3,6.3,0,0,0,202.73,537.28Zm29.17,99.17a27.31,27.31,0,0,0,4.51-2.76,9.24,9.24,0,0,0,3.05-10.47q-2.61-8.43-15.27-10.47a37,37,0,0,0-11.92-.73,39.23,39.23,0,0,0-11.49,2.47q-8.88,3.79-9.6,10.77a9.93,9.93,0,0,0,3.78,8.43,22.47,22.47,0,0,0,4.36,2.76l.8.44a33.69,33.69,0,0,0,15.35,3.2,34.93,34.93,0,0,0,15.63-3.2Z"/><path class="cls-45" d="M270.87,617.84l-6.68-7,7.41-8.43V618Zm-46.33-84.19h-.43v-.15H224l-4.36-4.65,4.94-5.67v10.47Zm-4.21,15.85,2.61-3.64V554Q221.64,551.54,220.33,549.5Zm-50.47-10.91q.58-4.65,6.54-7.27a29,29,0,0,1,7.86-1.6,25,25,0,0,1,8.14.43q8.58,1.47,10.33,7.13a6.3,6.3,0,0,1-2,7.13,15.21,15.21,0,0,0-8.29-3.64,25,25,0,0,0-8.14-.44,29,29,0,0,0-7.86,1.61,14.2,14.2,0,0,0-3.92,2.47A6.89,6.89,0,0,1,169.86,538.59Zm54.33,89.87a34.51,34.51,0,0,0-11.92-.88,39.23,39.23,0,0,0-11.49,2.48,23.85,23.85,0,0,0-5.82,3.63,9.93,9.93,0,0,1-3.78-8.43q.72-7,9.6-10.77A39.23,39.23,0,0,1,212.27,612a37,37,0,0,1,11.92.73q12.66,2,15.27,10.47a9.24,9.24,0,0,1-3.05,10.47Q232.33,629.76,224.19,628.46Zm41.16,12.79,3.93-5.38V647.8Q267.24,644.31,265.35,641.25Z"/><path class="cls-46" d="M228.76,544.7c1.16-.2,2.37-.34,3.63-.44v10.62a80.83,80.83,0,0,0-9,1.45v-1.6c-.1-.19-.25-.43-.44-.72v-8.15C224.69,545.47,226.63,545.09,228.76,544.7Zm-31.85,15.7,7.85-1.89v10.62L196.91,571ZM178,566.08q11.64,0,16.15-.3V576.4q-4.52.3-16.15.29Zm-10.32-7.71,8.43,1.75v10.61L167.68,569Zm-20.22-3.49v.43c-2.13-.19-4.79-.48-8-.87V543.83c1.65.19,3.21.38,4.66.58q3.49.29,5.67.44v7.7Zm130.25,79.39q2.39-.42,5.16-.87-2.37,8.08-4.36,16.29c-3.23.46-6.11,1-8.65,1.6V649l-.58-1.16V635.87Q272.91,635,277.71,634.27Zm-46.83,38.54v-15.7l11.64-2.62v15.56Zm-3.93-7.7v15.7q-6.67.44-23.84.44V665.69Q220.26,665.69,227,665.11Zm-26.75-8.3v15.71L188,669.76V654.2Zm-42-7.7v.58q-4.65-.44-11.93-1.16V632.82q3.93.43,7,.87c3.49.29,6.26.53,8.29.73v11.2Z"/><path class="cls-47" d="M219.31,558.22q2.46-1.89,3.92-3.19a.43.43,0,0,1,.15-.3v10.62a46.1,46.1,0,0,1-4.07,3.49c-1,.68-2.48,1.7-4.51,3V561.28C216.83,559.92,218.34,558.9,219.31,558.22Zm-22.4,2.18V571c-1.74,2.81-2.66,4.61-2.76,5.38V565.78Q194.3,564.63,196.91,560.4Zm-38.39,11.49V561.28l9.16-2.91V569Zm111.34,79.4v13.38a72.92,72.92,0,0,1-6.11,4.94q-2,1.46-6.55,4.51V658.56q4.51-3.06,6.55-4.65a55.11,55.11,0,0,0,5.82-4.51,1.45,1.45,0,0,1,.29-.44ZM227,680.74V665.11c0-1.17,1.31-3.83,3.93-8v15.7Q227,679,227,680.74ZM188,654.2v15.56l-13.67,4.36v-15.7Z"/><path class="cls-48" d="M157.44,604l9.6,6.69-5.67,5.68-3.93.72V604Zm.73,52.43v-6.76a5.24,5.24,0,0,0,1.31.15l14.83,8.58v15.7l-16.14-9.45v-8.22Zm46.59-97.94,10,2.77v10.61l-10-2.76Zm-28.65,1.61,1.89,6v10.61l-1.89-6Zm-28.65,5.37V555.31h.88l10.18,6v10.61Zm5.39-16.14-3.06,3.2v-7.7Zm.72-20.5-3.93,3.78-2.61.58v-9ZM257.2,658.56v15.56l-14.68-4.07V654.49Zm-57,14V656.81l2.91,8.88v15.56ZM166,641.11l-4.51,4.51v-11.2Z"/><path class="cls-49" d="M202.74,498.8s.44,13,3.49,19.82a12.77,12.77,0,0,0,5.92,5.85s-2.29,1.85-3.65,1.18c-6.68-3.3-16.38-28.17-16.38-28.17Z"/><path class="cls-49" d="M201.39,498.19s.68,11.58,1.33,19.69a17.45,17.45,0,0,0,5,10.62s-7.87,3-11.75,4.1c-11.95,3.44-33.66-5.19-33.66-5.19l34.56-26Z"/><path class="cls-50" d="M213.86,641.61s-9,10.65-11.47,12.62-11.33,3.88-13.62,4.28c-2.51.43-4.93,1.42-6.34-1.69-1.88-4.2,8.95-31.06,8.95-31.06l22.48,1.33Z"/><path class="cls-51" d="M205.18,719.6c-.06-.11-1.66-10.08-2-12.18-.83-6.09,4.49-14.06,4.49-14.06L229.15,662c1.54-1.72,5.26-8.35,6.26-11,3.48-9.08-3.53-15.83-5.13-17.16l-11-9.4-38.89-11.43c-9.87,3.72,20,14.46,17.66,18.76-.12.23,10.2,21.53,12.66,26.85.3.67.53,3.39.11,4-2.63,3.6-13.54,21.56-18.29,28.62l-3.69,5.92c-.87,1.58-.85,2.35-.77,4.8.08,2.74,4.65,13.81,4.65,13.81s2.68,7.48,8.92,8.23c3.24.4,4.24-1.83,3.66-4A3.86,3.86,0,0,0,205.18,719.6Z"/><path class="cls-52" d="M203.31,729.78c2.62-.12,3.13-3,3.15-3.32.11-2.88-1.9-3.52-1.9-3.52.28,1.86-10.94-1.31-6.32.17,2.86.92-4.41-4.7-6.48-8-1.47-2.37-2.15-6.25-2.78-8.3-1.92-6.31-.2-9.94-.2-9.94a17.21,17.21,0,0,0-2.26,3.29c-1.72,3.13-.71,4.41-.71,4.41s-1.75.49-.39,3.76c1.49,3.59,3.64,10.19,6.67,14.58C194.6,726.52,199.53,729.94,203.31,729.78Z"/><path class="cls-53" d="M203.73,728.68c2.88-.12,3.53-2.13,2-7.44l-.45-1.37c.28,1.87-1,3.69-4.84,2.37-3.06-1.08-5.29-3.83-7.54-8A31.52,31.52,0,0,1,189.14,704,14.18,14.18,0,0,1,191,693.91s-3.36.24-5,4.49a16,16,0,0,0-1.11,6l1.76,4.24c1.26,3.17,2.81,8.22,6.54,13.32S201,728.8,203.73,728.68Z"/><path class="cls-54" d="M225.48,717.31c-.09-.08-10.25-10-11.8-11.43-3.13-3-2-14.69-2-14.69l3.52-34.46c.44-3,2.16-9.2-4.5-17L186.26,616s-18.42-6.91-24,1.76c-5.72,8.85-11.65,9-6.34,15.08.16.19,33.65,17.9,37.83,22,2.9,2.86,1.18,9.41,1.08,10.14-1.74,12.44,4.52,36.44,4.55,37.93v.62l.07,4.2c.15,1.81.6,2.43,2,4.43,1.59,2.23,11.54,8.9,11.54,8.9s6.4,4.72,12,1.87c2.9-1.46,2.5-3.87.8-5.35A3.39,3.39,0,0,0,225.48,717.31Z"/><path class="cls-52" d="M229.6,726.8c2.1-1.53.94-4.21.77-4.5-1.51-2.45-3.54-1.87-3.54-1.87,1.27,1.38-9.82,5-5.15,3.65,2.87-.82-6.29-1.46-9.87-3.1-2.53-1.14-5.24-4-6.91-5.34-5.11-4.18-5.72-8.14-5.72-8.14s-1.8-.4-1.59,2a16.37,16.37,0,0,0,1.08,5.17s1,3.08,2.7,4.1c4.1,2.48,10.1,6.55,15.06,8.51C220.54,728.92,226.54,729,229.6,726.8Z"/><path class="cls-53" d="M229.34,725.66c2.32-1.71,1.74-3.72-2.49-7.27-.18-.17-1.14-.91-1.14-.91,1.27,1.4,1.17,3.65-2.7,4.66-3.16.8-6.65.25-10.31-2.12-2.33-1.51-5.91-3.14-9.2-6.73-4.64-5.09-4.12-9.75-4.12-9.75a7,7,0,0,0-1.63,6.8c1.14,4.79,6.74,8.57,6.74,8.57a41.59,41.59,0,0,0,11.86,7.17C222.43,728.29,227.13,727.28,229.34,725.66Z"/><path class="cls-55" d="M196.39,608c3.32,2.8,19.49,14,19.84,14.23,8.41,5.88,9,7.25,9,7.25,0-.17-3.1-1-8.61.2a81.16,81.16,0,0,0-18.41,6.07c-11.44,5.43-15.13,22.15-15.13,22.15s-3.28-5.41-5.8-7.07c-3.05-2-27.4-10-28.93-27-.44-4.73.14-10.58,1.56-19.74,0,0,7.82,11.12,26.56,6.81,14.15-3.26,14.8-9.56,14.8-9.56C191.24,602.16,192.77,605,196.39,608Z"/><path class="cls-56" d="M229.24,596.7l-9.11,5.7c-16.45-6.17-17.95-6.6-23.75-10.25a15.82,15.82,0,0,1-5.95-8.4l-7.92-34.48c-3.74-5.77-5.27-20.48,2-21.45,11.18-1.5,13.15,16.25,13.85,22,.83,7,2.24,23.38,2.62,27.87a2.38,2.38,0,0,0,1.12,1.8Z"/><path class="cls-57" d="M189.83,528.9,196.14,556s1.38,5.39.87,8.4c-.71,4.23-3.88,7.81-4.09,8.12-2.32,3.14-3.64,7.21-2.91,13.88l1.35,16.27s.9,4.41-10.81,8.81c-25.78,9.73-31.63-.52-31.63-.52a6.85,6.85,0,0,1-.33-3.54c.76-3.65,1.36-6.06,2.14-8.79l3.08-13.85a21.93,21.93,0,0,0,1-6.16l-3.66-17.82s-5.09-12.33-.76-17.69c4.15-5.16,14.85-13.12,18.9-15.21a24.66,24.66,0,0,1,5.9-1.8S184.68,524.91,189.83,528.9Z"/><path class="cls-56" d="M183.86,537.11c-7.37,5.72-10.38-1.53-14-7.11l1.33-19.48,15.34,3Z"/><path class="cls-58" d="M193.23,497.72c7.58-.29,8.91,4.66,8.31,10.23-.5,4.59-4.88,16.6-4.88,16.6-1.94,6-6.67,8.8-10.54,8.55-2.54-.17-4.59-.76-7.49-3.41-1.89-1.74-4.12-3.41-5.41-5.81,0-.08-1.05-9.76-.75-12.85C173,505.19,180.7,498.21,193.23,497.72Z"/><path class="cls-49" d="M162.91,497.36s-2.91,15.11-5.33,17.7c-2.89,3.09-4.3,3.17-4.3,3.17s1.12,1.1,4.41.3c3.88-.93,9.8-9.91,9.8-9.91Z"/><path class="cls-49" d="M168.92,524.78s-1.41,6.64-4.08,8.25c-.47.29-1.62,0-2.81-1.23-4.11-3.8-5.81-8.68-5.5-8.94,8.49-7,4.76-15.09,5.16-18.87,1.5-13.83,8.17-21.55,20.34-22.27,7.55-.43,16.56,4.74,19.32,11.1,3,7,.73,12.7.63,12.08,0-.33-4.14-7.26-9.11-3.66-9.08,6.58-15.74,8.52-16.31,11.15-4.14,19.12-7.33,21.46-8.17,21.79C169.74,531,168.92,524.78,168.92,524.78Z"/><path class="cls-59" d="M251.91,591.57c-.3.18-37.3-7.29-37.3-7.29l-16.26,20.24,3.12.64,14.36-17.69L250,594.92Z"/><path class="cls-60" d="M204.83,594.82a.85.85,0,1,0,.5-1.09A.84.84,0,0,0,204.83,594.82Z"/><path class="cls-61" d="M205,594.77a.33.33,0,0,0,.21.58,1.17,1.17,0,0,0,1-.37c.22-.26.13-.52-.2-.58A1.17,1.17,0,0,0,205,594.77Z"/><polygon class="cls-62" points="199.91 604.85 235.93 611.21 251.45 592.61 215.43 586.25 199.91 604.85"/><path class="cls-63" d="M212.56,583.74a3.63,3.63,0,0,1,3.08-1.13l39.56,7c1,.19,1.32,1,.64,1.79l-17.77,21.3A3.63,3.63,0,0,1,235,613.8l-39.56-7c-1-.18-1.32-1-.64-1.79Zm23.19,27,15.52-18.6-36-6.35-15.52,18.59,36,6.36Zm10.64-8.79c.43-.52.25-1-.4-1.14a2.31,2.31,0,0,0-2,.72c-.43.51-.24,1,.42,1.14a2.3,2.3,0,0,0,1.95-.72ZM205,594.54a.33.33,0,0,0,.21.59,1.18,1.18,0,0,0,1-.37c.22-.26.13-.53-.21-.58a1.18,1.18,0,0,0-1,.36Z"/><path class="cls-64" d="M256.15,590.25a1.13,1.13,0,0,1-.31,1.13l-17.77,21.3A3.63,3.63,0,0,1,235,613.8l-39.56-7a1.13,1.13,0,0,1-1-.66c.34,1,.69,1.89,1,2.83a1.16,1.16,0,0,0,1,.65l39.56,7a3.63,3.63,0,0,0,3.08-1.13l17.77-21.29a1.16,1.16,0,0,0,.31-1.14Z"/><g class="cls-1"><g class="cls-1"><path class="cls-65" d="M243.56,602.31l.07.18a.83.83,0,0,0,.69.48,2.65,2.65,0,0,0,2.27-.83.85.85,0,0,0,.23-.83l-.06-.18a.86.86,0,0,1-.23.83,2.63,2.63,0,0,1-2.27.83.83.83,0,0,1-.7-.48Z"/></g><path class="cls-66" d="M243.79,601.48c-.49.59-.28,1.18.47,1.31a2.63,2.63,0,0,0,2.27-.83c.49-.59.28-1.18-.48-1.31A2.68,2.68,0,0,0,243.79,601.48Z"/></g><polygon class="cls-67" points="250.07 601.35 249.63 600.33 245.88 604.82 246.3 605.85 250.07 601.35"/><polygon class="cls-68" points="250.07 601.35 249.05 601.05 245.88 604.82 246.3 605.85 250.07 601.35"/><path class="cls-69" d="M200.32,608.09l1.33.25a.11.11,0,0,1,.08.07l.57,1.69s0,.06-.05,0L201,610Z"/><path class="cls-70" d="M201.73,608.41a.11.11,0,0,0-.08-.07l-1.23-.23.65,1.79,1.22.19Z"/><path class="cls-63" d="M200.52,608.16c-.06,0-.1,0-.12,0l-.33.39a.13.13,0,0,1,.12,0,.41.41,0,0,1,.26.22l.53,1.47s0,.09,0,.11l.33-.4s0-.07,0-.12l-.53-1.46A.41.41,0,0,0,200.52,608.16Z"/><path class="cls-71" d="M200.19,608.56a.41.41,0,0,1,.26.22l.53,1.47c0,.09,0,.16-.13.14a.35.35,0,0,1-.26-.21l-.53-1.47C200,608.61,200.08,608.54,200.19,608.56Z"/><path class="cls-72" d="M201.12,608.25l.62,1.75.55.09-.56-1.68a.11.11,0,0,0-.08-.07Z"/><path class="cls-58" d="M203.89,595.05s7.37-2.23,10-2.22,13.39,3.76,13.39,3.76,1.07,1.46-.59,1.67a60.88,60.88,0,0,1-7.18-.28,22.19,22.19,0,0,1-1.36,4.1c-.69,1.25-1.2,2.54-3.62,2.57a3.68,3.68,0,0,1-3.35-2s-5.62.46-8.25-.37S201.21,597,203.89,595.05Z"/><path class="cls-58" d="M206.43,594.27s-2.61,1.62-3.13,3.71a5.71,5.71,0,0,0,.79,4.31s-29,5.29-43.87-.39c-5.9-2.25-6.66-6.66-6.66-6.66l-7-39c-1.18-11.94,4.11-15.39,10.69-14.37s8.3,16.13,8.7,22.79c.23,4.12,2.07,15.52,3.13,20.75.78,3.92,1.71,3.9,4.11,4.31Z"/><path class="cls-73" d="M814.78,622.29C652,278.82,409.66,317.35,276.77,332"/><path class="cls-73" d="M261.51,570.13c46-120.63,173.29-337.39,492.08-326.24"/></g></g></svg>