<svg id="afb0cb62-89b0-4ac8-b051-f6c6b3d78cb9" data-name="Layer 1" xmlns="http://www.w3.org/2000/svg" viewBox="0 0 225.16 110.44">
  <defs>
    <style>
      .a759b445-33d7-4ee9-bd22-e5baf7f2dc0f {
        fill: #008ecf;
      }

      .b0d08b65-9144-4c31-8fe7-e4fca429b73e {
        fill: #073857;
      }

      .f51e8f5d-7e08-4e85-8df2-e6d9faf35e33 {
        fill: #ef574f;
      }
    </style>
  </defs>
  <g>
    <path class="a759b445-33d7-4ee9-bd22-e5baf7f2dc0f" d="M42.24,47.85h1.58a1,1,0,0,0,1-1v-.73a1,1,0,0,0-1-1h-2c-4.92,0-8.2,1-8.2,6,0,1.51.11,2.94.22,4.32s.21,2.6.21,3.9c0,.69,0,2.8-5.27,3a1,1,0,0,0-.91,1v1a1,1,0,0,0,.91,1c5.27.19,5.27,2.3,5.27,3,0,1.39-.1,2.61-.21,3.91s-.22,2.71-.22,4.32c0,5,3.28,6,8.2,6h2a1,1,0,0,0,1-.95v-.73a1,1,0,0,0-1-1H42.24c-4.28,0-5-1-5-3.56,0-1.25.06-2.41.12-3.62s.14-2.59.14-4.09c0-2.68-.9-4.08-3.14-4.73,2.24-.65,3.14-2.05,3.14-4.73,0-1.35-.07-2.72-.14-4s-.12-2.5-.12-3.68C37.27,48.9,38,47.85,42.24,47.85Z"/>
    <path class="b0d08b65-9144-4c31-8fe7-e4fca429b73e" d="M69.5,77.83H72a.64.64,0,0,0,.6-.84l-9-26.68a.63.63,0,0,0-.6-.43H59.82a.63.63,0,0,0-.6.43L50.23,77a.64.64,0,0,0,.6.84h2.32a.63.63,0,0,0,.6-.45l2.53-8H66.42l2.48,8A.64.64,0,0,0,69.5,77.83ZM57.19,66.45l1.32-4.22c1-3.11,1.88-5.37,2.77-8.61h.17c.85,3.24,1.79,5.5,2.77,8.61l1.3,4.22Z"/>
    <path class="b0d08b65-9144-4c31-8fe7-e4fca429b73e" d="M77.44,73.75l1.3-1.51a.63.63,0,0,1,.9-.07,11.69,11.69,0,0,0,7.72,3c3.83,0,6-1.83,6-4.38,0-3-2.18-3.84-5-5l-4-1.79c-2.77-1.11-6-3.07-6-7.2s3.83-7.42,9.16-7.42a12.27,12.27,0,0,1,8.17,3,.62.62,0,0,1,.06.86l-1.09,1.35a.63.63,0,0,1-.88.1,9.77,9.77,0,0,0-6.39-2.2c-3.24,0-5.41,1.53-5.41,4,0,2.68,2.6,3.66,5,4.6l3.92,1.74c3.45,1.37,6.18,3.33,6.18,7.46,0,4.43-3.75,8-9.88,8a14.22,14.22,0,0,1-9.71-3.72A.63.63,0,0,1,77.44,73.75Z"/>
    <path class="b0d08b65-9144-4c31-8fe7-e4fca429b73e" d="M129.45,49.88h2.89a.64.64,0,0,1,.57.34l8.77,17.21,2.68,5.79h.09c-.13-2.76-.47-5.92-.47-8.86V50.51a.63.63,0,0,1,.64-.63h2.13a.64.64,0,0,1,.64.63V77.19a.64.64,0,0,1-.64.64h-2.89a.65.65,0,0,1-.57-.35l-8.77-17.21-2.68-5.79h-.09c.13,2.85.47,5.83.47,8.73v14a.64.64,0,0,1-.64.64h-2.13a.64.64,0,0,1-.64-.64V50.51A.64.64,0,0,1,129.45,49.88Z"/>
    <path class="b0d08b65-9144-4c31-8fe7-e4fca429b73e" d="M153.65,63.85c0-9,5.24-14.49,12.53-14.49a10.41,10.41,0,0,1,7.23,3,.63.63,0,0,1,0,.89l-1.19,1.32a.63.63,0,0,1-.9,0,7.39,7.39,0,0,0-5.17-2.06c-5.33,0-8.82,4.3-8.82,11.25s3.49,11.41,8.82,11.41A7.85,7.85,0,0,0,172,72.59a.63.63,0,0,1,.9,0l1.19,1.26a.64.64,0,0,1,0,.86,10.71,10.71,0,0,1-8.26,3.61C158.93,78.34,153.65,73,153.65,63.85Z"/>
    <path class="a759b445-33d7-4ee9-bd22-e5baf7f2dc0f" d="M196.3,62.41c-5.26-.19-5.26-2.3-5.26-3,0-1.3.09-2.56.18-3.9s.2-2.81.2-4.32c0-5-3.26-6-8.16-6h-2a1,1,0,0,0-1,1v.73a1,1,0,0,0,1,1h1.54c4.28,0,5,1.1,5,3.56,0,1.18-.06,2.39-.12,3.68s-.13,2.68-.13,4c0,2.68.88,4.08,3.1,4.73-2.22.65-3.1,2.05-3.1,4.73,0,1.5.07,2.81.13,4.09s.12,2.37.12,3.62c0,2.46-.72,3.56-5,3.56H181.3a1,1,0,0,0-1,1v.73a1,1,0,0,0,1,.95h2c4.9,0,8.16-1,8.16-6,0-1.6-.1-3-.2-4.32s-.18-2.52-.18-3.91c0-.69,0-2.8,5.26-3a1,1,0,0,0,.91-1v-1A1,1,0,0,0,196.3,62.41Z"/>
    <path class="f51e8f5d-7e08-4e85-8df2-e6d9faf35e33" d="M120.06,53.29h0a1.64,1.64,0,0,1-.72-2.22h0a1.66,1.66,0,0,1,2.22-.72h0a1.65,1.65,0,0,1,.73,2.23h0A1.64,1.64,0,0,1,120.06,53.29Z"/>
    <path class="b0d08b65-9144-4c31-8fe7-e4fca429b73e" d="M119.88,55.89,118.07,55a.65.65,0,0,0-.86.28l-4.67,9.19L110.76,61a.63.63,0,0,0-.85-.28l-1.81.92a.64.64,0,0,0-.28.86l3,5.88a.59.59,0,0,1,.07.29v8.57a.64.64,0,0,0,.64.64h2a.64.64,0,0,0,.64-.64V68.62a.59.59,0,0,1,.07-.29l5.9-11.59A.63.63,0,0,0,119.88,55.89Z"/>
    <path class="f51e8f5d-7e08-4e85-8df2-e6d9faf35e33" d="M105.7,58.29v0a1.66,1.66,0,0,1,.69-2.21h0a1.64,1.64,0,0,1,2.25.71l0,0a1.65,1.65,0,0,1-.72,2.22h0A1.65,1.65,0,0,1,105.7,58.29Z"/>
    <path class="a759b445-33d7-4ee9-bd22-e5baf7f2dc0f" d="M105.9,45.62l.77-1.88a.63.63,0,0,0-.35-.83l-7.65-3.12a.63.63,0,0,0-.85.44l-1.95,7.91a.62.62,0,0,0,.46.77l2,.49a.64.64,0,0,0,.77-.46l.6-2.46,3.88,7.61a.64.64,0,0,0,.86.28l1.81-.93a.63.63,0,0,0,.28-.85L102.63,45l2.44,1A.63.63,0,0,0,105.9,45.62Z"/>
    <path class="a759b445-33d7-4ee9-bd22-e5baf7f2dc0f" d="M140,27,138,19.06a.63.63,0,0,0-.85-.44l-7.82,3.19a.63.63,0,0,0-.35.83l.77,1.88a.62.62,0,0,0,.82.35l2.62-1.06L121.47,46.88a.64.64,0,0,0,.28.86l1.81.92a.64.64,0,0,0,.86-.28l11.75-23.07.6,2.45a.64.64,0,0,0,.77.46l2-.49A.63.63,0,0,0,140,27Z"/>
  </g>
</svg>
