<svg id="a0574c3c-82a3-46fe-b2d7-15a4b63c1285" data-name="Layer 1" xmlns="http://www.w3.org/2000/svg" viewBox="0 0 224.98 109.93">
  <defs>
    <style>
      .a93259f1-f086-4152-b391-61ef58567ab7 {
        fill: #008ecf;
      }

      .a6131015-ce26-4f74-862f-829310babdfc {
        fill: #fff;
      }

      .fef37127-af83-4ed5-a23d-22d2737a54df {
        fill: #ef574f;
      }
    </style>
  </defs>
  <g>
    <path class="a93259f1-f086-4152-b391-61ef58567ab7" d="M42.14,47.85h1.58a1,1,0,0,0,1-1v-.73a1,1,0,0,0-1-1h-2c-4.92,0-8.2,1-8.2,6,0,1.51.11,2.94.22,4.32s.2,2.6.2,3.9c0,.69,0,2.8-5.26,3a1,1,0,0,0-.91,1v1a1,1,0,0,0,.91,1c5.26.19,5.26,2.3,5.26,3,0,1.39-.1,2.61-.2,3.91s-.22,2.71-.22,4.32c0,5,3.28,6,8.2,6h2a1,1,0,0,0,1-.95v-.73a1,1,0,0,0-1-1H42.14c-4.27,0-5-1-5-3.56,0-1.25.06-2.41.12-3.62s.13-2.59.13-4.09c0-2.68-.89-4.08-3.13-4.73,2.24-.65,3.13-2.05,3.13-4.73,0-1.35-.06-2.72-.13-4s-.12-2.5-.12-3.68C37.18,48.9,37.87,47.85,42.14,47.85Z"/>
    <path class="a6131015-ce26-4f74-862f-829310babdfc" d="M69.41,77.83h2.48A.64.64,0,0,0,72.5,77l-9-26.68a.63.63,0,0,0-.6-.43H59.73a.62.62,0,0,0-.6.43L50.14,77a.64.64,0,0,0,.6.84h2.31a.63.63,0,0,0,.61-.45l2.52-8H66.33l2.48,8A.63.63,0,0,0,69.41,77.83ZM57.09,66.45l1.33-4.22c1-3.11,1.87-5.37,2.77-8.61h.17c.85,3.24,1.79,5.5,2.77,8.61l1.3,4.22Z"/>
    <path class="a6131015-ce26-4f74-862f-829310babdfc" d="M77.35,73.75l1.29-1.51a.64.64,0,0,1,.91-.07,11.68,11.68,0,0,0,7.71,3c3.84,0,6-1.83,6-4.38,0-3-2.17-3.84-5-5l-4-1.79c-2.77-1.11-6-3.07-6-7.2s3.84-7.42,9.16-7.42a12.28,12.28,0,0,1,8.18,3,.62.62,0,0,1,.06.86l-1.1,1.35a.62.62,0,0,1-.87.1,9.77,9.77,0,0,0-6.39-2.2c-3.24,0-5.41,1.53-5.41,4,0,2.68,2.59,3.66,5,4.6l3.92,1.74C94.25,64.28,97,66.24,97,70.37c0,4.43-3.75,8-9.89,8a14.21,14.21,0,0,1-9.7-3.72A.63.63,0,0,1,77.35,73.75Z"/>
    <path class="a6131015-ce26-4f74-862f-829310babdfc" d="M129.35,49.88h2.9a.64.64,0,0,1,.57.34l8.77,17.21,2.68,5.79h.09c-.13-2.76-.47-5.92-.47-8.86V50.51a.63.63,0,0,1,.63-.63h2.14a.64.64,0,0,1,.64.63V77.19a.64.64,0,0,1-.64.64h-2.89a.65.65,0,0,1-.57-.35l-8.77-17.21-2.69-5.79h-.08c.13,2.85.47,5.83.47,8.73v14a.64.64,0,0,1-.64.64h-2.14a.64.64,0,0,1-.63-.64V50.51A.63.63,0,0,1,129.35,49.88Z"/>
    <path class="a6131015-ce26-4f74-862f-829310babdfc" d="M153.56,63.85c0-9,5.24-14.49,12.52-14.49a10.38,10.38,0,0,1,7.23,3,.64.64,0,0,1,0,.89l-1.2,1.32a.62.62,0,0,1-.89,0,7.39,7.39,0,0,0-5.18-2.06c-5.32,0-8.81,4.3-8.81,11.25s3.49,11.41,8.81,11.41a7.85,7.85,0,0,0,5.83-2.59.63.63,0,0,1,.9,0L174,73.87a.63.63,0,0,1,0,.86,10.74,10.74,0,0,1-8.27,3.61C158.84,78.34,153.56,73,153.56,63.85Z"/>
    <path class="a93259f1-f086-4152-b391-61ef58567ab7" d="M196.21,62.41c-5.27-.19-5.27-2.3-5.27-3,0-1.3.09-2.56.19-3.9s.2-2.81.2-4.32c0-5-3.26-6-8.16-6h-2a1,1,0,0,0-1,1v.73a1,1,0,0,0,1,1h1.53c4.29,0,5,1.1,5,3.56,0,1.18-.06,2.39-.12,3.68s-.13,2.68-.13,4c0,2.68.88,4.08,3.09,4.73-2.21.65-3.09,2.05-3.09,4.73,0,1.5.06,2.81.13,4.09s.12,2.37.12,3.62c0,2.46-.72,3.56-5,3.56h-1.53a1,1,0,0,0-1,1v.73a1,1,0,0,0,1,.95h2c4.9,0,8.16-1,8.16-6,0-1.6-.1-3-.2-4.32s-.19-2.52-.19-3.91c0-.69,0-2.8,5.27-3a1,1,0,0,0,.91-1v-1A1,1,0,0,0,196.21,62.41Z"/>
    <path class="fef37127-af83-4ed5-a23d-22d2737a54df" d="M120,53.29h0a1.64,1.64,0,0,1-.72-2.22h0a1.66,1.66,0,0,1,2.22-.72h0a1.66,1.66,0,0,1,.73,2.23h0A1.65,1.65,0,0,1,120,53.29Z"/>
    <path class="a6131015-ce26-4f74-862f-829310babdfc" d="M119.79,55.89,118,55a.64.64,0,0,0-.86.28l-4.68,9.19L110.67,61a.63.63,0,0,0-.85-.28l-1.82.92a.64.64,0,0,0-.27.86l3,5.88a.59.59,0,0,1,.07.29v8.57a.64.64,0,0,0,.64.64h2a.64.64,0,0,0,.64-.64V68.62a.59.59,0,0,1,.07-.29l5.9-11.59A.63.63,0,0,0,119.79,55.89Z"/>
    <path class="fef37127-af83-4ed5-a23d-22d2737a54df" d="M105.61,58.29v0a1.66,1.66,0,0,1,.69-2.21h0a1.64,1.64,0,0,1,2.25.71v0a1.64,1.64,0,0,1-.72,2.22h0A1.64,1.64,0,0,1,105.61,58.29Z"/>
    <path class="a93259f1-f086-4152-b391-61ef58567ab7" d="M105.81,45.62l.77-1.88a.63.63,0,0,0-.35-.83l-7.65-3.12a.64.64,0,0,0-.86.44l-1.94,7.91a.62.62,0,0,0,.46.77l2,.49a.64.64,0,0,0,.77-.46l.6-2.46,3.88,7.61a.63.63,0,0,0,.85.28l1.82-.93a.64.64,0,0,0,.28-.85L102.54,45,105,46A.63.63,0,0,0,105.81,45.62Z"/>
    <path class="a93259f1-f086-4152-b391-61ef58567ab7" d="M139.89,27l-1.95-7.9a.63.63,0,0,0-.85-.44l-7.83,3.19a.63.63,0,0,0-.34.83l.76,1.88a.63.63,0,0,0,.83.35l2.62-1.06L121.38,46.88a.63.63,0,0,0,.28.86l1.81.92a.64.64,0,0,0,.86-.28l11.75-23.07.6,2.45a.64.64,0,0,0,.77.46l2-.49A.64.64,0,0,0,139.89,27Z"/>
  </g>
</svg>
