<?xml version="1.0" encoding="utf-8"?>
<!-- Generator: Adobe Illustrator 24.1.3, SVG Export Plug-In . SVG Version: 6.00 Build 0)  -->
<svg version="1.1" id="Layer_1" xmlns="http://www.w3.org/2000/svg" xmlns:xlink="http://www.w3.org/1999/xlink" x="0px" y="0px"
	 viewBox="0 0 525.7 67.5" style="enable-background:new 0 0 525.7 67.5;" xml:space="preserve">
<style type="text/css">
	.st0{fill:#FFFFFF;}
	.st1{fill:#008ECF;}
	.st2{fill:#09263C;}
</style>
<g id="a300d957-ef99-4423-a65e-65d59e1f0c90">
	<g id="b3408742-9a85-4cb1-8197-d2d32ddd34e9">
		<g>
			<g>
				<rect x="352.9" y="12.2" class="st0" width="1.5" height="55.2"/>
				<g>
					<g>
						<path class="st0" d="M383.4,32.4v-20h12.8v3.1H387v4.9h8.2v3H387v5.9h9.9v3.1L383.4,32.4z"/>
						<path class="st0" d="M398.7,17.8c0.9-0.2,1.7-0.4,2.6-0.5c1.2-0.2,2.4-0.2,3.6-0.2c1.1,0,2.1,0.1,3.1,0.5
							c0.8,0.3,1.5,0.8,2,1.4c0.5,0.6,0.8,1.4,1,2.2c0.2,0.9,0.3,1.9,0.3,2.8v8.5h-3.5v-8c0-0.7,0-1.4-0.2-2.1
							c-0.1-0.5-0.2-1-0.5-1.4c-0.2-0.4-0.6-0.6-1-0.8c-0.5-0.2-1-0.3-1.5-0.3c-0.5,0-0.9,0-1.4,0.1l-1.1,0.1v12.2h-3.5V17.8z"/>
						<path class="st0" d="M426.6,30.8c0,2.4-0.6,4.2-1.8,5.3c-1.2,1.1-3.1,1.7-5.6,1.7c-0.9,0-1.8-0.1-2.7-0.2
							c-0.8-0.1-1.6-0.3-2.4-0.6l0.6-3c0.6,0.3,1.3,0.5,2,0.6c0.8,0.2,1.6,0.2,2.5,0.2c1.1,0.1,2.1-0.2,3-0.9c0.6-0.7,1-1.6,0.9-2.6
							v-0.6c-0.4,0.2-0.9,0.4-1.4,0.5c-0.6,0.2-1.3,0.3-2,0.3c-0.9,0-1.8-0.1-2.6-0.5c-0.8-0.3-1.5-0.8-2-1.4
							c-0.6-0.6-1-1.4-1.3-2.2c-0.3-1-0.5-2-0.5-3.1c0-1,0.2-2,0.5-3c0.3-0.9,0.8-1.7,1.5-2.4c0.7-0.7,1.5-1.2,2.4-1.5
							c1-0.4,2.1-0.6,3.1-0.5c1.1,0,2.2,0.1,3.2,0.3c1,0.2,1.9,0.4,2.6,0.5L426.6,30.8z M416.9,24.4c-0.1,1.2,0.3,2.3,1,3.3
							c0.7,0.7,1.6,1,2.5,1c0.5,0,1.1-0.1,1.6-0.2c0.4-0.1,0.8-0.3,1.2-0.5v-7.8c-0.3-0.1-0.6-0.1-0.9-0.2c-0.5-0.1-0.9-0.1-1.4-0.1
							c-1.1-0.1-2.2,0.4-2.9,1.3C417.2,22.1,416.8,23.3,416.9,24.4z"/>
						<path class="st0" d="M433.5,12.9c0,0.6-0.2,1.2-0.6,1.6c-0.4,0.4-0.9,0.6-1.5,0.6c-0.6,0-1.1-0.2-1.5-0.6
							c-0.4-0.4-0.7-1-0.6-1.6c0-0.6,0.2-1.2,0.6-1.6c0.4-0.4,1-0.6,1.5-0.6c0.6,0,1.1,0.2,1.5,0.6
							C433.3,11.7,433.5,12.3,433.5,12.9z M433.1,32.4h-3.5V17.3h3.5V32.4z"/>
						<path class="st0" d="M435.8,17.8c0.9-0.2,1.7-0.4,2.6-0.5c1.2-0.2,2.4-0.2,3.6-0.2c1.1,0,2.1,0.1,3.1,0.5
							c0.8,0.3,1.5,0.8,2,1.4c0.5,0.6,0.8,1.4,1,2.2c0.2,0.9,0.3,1.9,0.3,2.8v8.5h-3.5v-8c0-0.7,0-1.4-0.2-2.1
							c-0.1-0.5-0.3-1-0.5-1.4c-0.2-0.4-0.6-0.6-1-0.8c-0.5-0.2-1-0.2-1.5-0.2c-0.5,0-0.9,0-1.4,0.1l-1.1,0.1v12.1h-3.5L435.8,17.8z
							"/>
						<path class="st0" d="M450.1,24.9c0-1.2,0.2-2.4,0.6-3.5c0.3-0.9,0.9-1.8,1.6-2.5c0.6-0.7,1.4-1.2,2.3-1.5
							c0.8-0.3,1.7-0.5,2.6-0.5c1.8-0.1,3.6,0.6,4.9,1.9c1.2,1.3,1.8,3.2,1.8,5.8c0,0.2,0,0.4,0,0.6s0,0.5,0,0.6h-10
							c0,1.1,0.4,2.1,1.2,2.8c0.9,0.7,2.1,1.1,3.3,1c0.8,0,1.6-0.1,2.3-0.2c0.6-0.1,1.1-0.3,1.7-0.5l0.5,2.9
							c-0.3,0.1-0.5,0.2-0.8,0.3c-0.3,0.1-0.7,0.2-1.1,0.3s-0.9,0.2-1.4,0.2c-0.5,0.1-1,0.1-1.5,0.1c-1.2,0-2.4-0.2-3.5-0.6
							c-0.9-0.4-1.7-0.9-2.4-1.7c-0.7-0.7-1.2-1.6-1.5-2.5C450.2,27,450.1,26,450.1,24.9z M460.2,23.4c0-0.5-0.1-0.9-0.2-1.4
							c-0.1-0.4-0.3-0.8-0.6-1.1c-0.3-0.3-0.6-0.6-1-0.8c-0.4-0.2-0.9-0.3-1.3-0.3c-0.5,0-1,0.1-1.4,0.3c-0.4,0.2-0.7,0.5-1,0.8
							c-0.3,0.3-0.5,0.7-0.6,1.1c-0.2,0.4-0.3,0.9-0.3,1.3L460.2,23.4z"/>
						<path class="st0" d="M465.1,24.9c0-1.2,0.2-2.4,0.6-3.5c0.3-0.9,0.9-1.8,1.6-2.5c0.6-0.6,1.4-1.2,2.3-1.5
							c0.8-0.3,1.7-0.5,2.6-0.5c1.8-0.1,3.6,0.6,4.9,1.9c1.2,1.3,1.7,3.2,1.7,5.8c0,0.2,0,0.4,0,0.6s0,0.5,0,0.6h-10
							c0,1.1,0.5,2.1,1.3,2.8c0.9,0.7,2.1,1.1,3.3,1c0.8,0,1.6-0.1,2.3-0.2c0.6-0.1,1.1-0.3,1.7-0.5l0.5,2.9
							c-0.3,0.1-0.5,0.2-0.8,0.3c-0.3,0.1-0.7,0.2-1.2,0.3s-0.9,0.2-1.4,0.2c-0.5,0.1-1,0.1-1.5,0.1c-1.2,0-2.4-0.2-3.5-0.6
							c-0.9-0.4-1.7-0.9-2.4-1.7c-0.7-0.7-1.1-1.6-1.4-2.5C465.3,27,465.1,26,465.1,24.9z M475.2,23.4c0-0.5-0.1-0.9-0.2-1.4
							c-0.1-0.4-0.3-0.8-0.6-1.1c-0.3-0.3-0.6-0.6-1-0.8c-0.4-0.2-0.9-0.3-1.3-0.3c-0.5,0-1,0.1-1.4,0.3c-0.4,0.2-0.7,0.5-1,0.8
							c-0.3,0.3-0.5,0.7-0.6,1.1c-0.2,0.4-0.3,0.9-0.3,1.3L475.2,23.4z"/>
						<path class="st0" d="M489.6,20.4c-0.3-0.1-0.7-0.2-1.2-0.3c-0.6-0.1-1.2-0.2-1.8-0.2c-0.4,0-0.8,0-1.2,0.1
							c-0.3,0-0.6,0.1-0.9,0.2v12.1H481V18c0.8-0.3,1.7-0.5,2.5-0.7c1.1-0.2,2.2-0.3,3.4-0.3c0.2,0,0.5,0,0.8,0l0.9,0.1
							c0.3,0,0.6,0.1,0.9,0.2c0.3,0.1,0.5,0.1,0.7,0.2L489.6,20.4z"/>
						<path class="st0" d="M495.5,12.9c0,0.6-0.2,1.2-0.6,1.6c-0.4,0.4-0.9,0.6-1.5,0.6c-0.6,0-1.1-0.2-1.5-0.6
							c-0.4-0.4-0.7-1-0.6-1.6c0-0.6,0.2-1.2,0.6-1.6c0.4-0.4,1-0.6,1.5-0.6c0.6,0,1.1,0.2,1.5,0.6
							C495.3,11.7,495.5,12.3,495.5,12.9z M495.1,32.4h-3.5V17.3h3.5V32.4z"/>
						<path class="st0" d="M497.8,17.8c0.9-0.2,1.7-0.4,2.6-0.5c1.2-0.2,2.4-0.2,3.5-0.2c1.1,0,2.1,0.1,3.1,0.5
							c0.8,0.3,1.5,0.8,2,1.4c0.5,0.6,0.8,1.4,1,2.2c0.2,0.9,0.3,1.9,0.3,2.8v8.5H507v-8c0-0.7,0-1.4-0.2-2.1
							c-0.1-0.5-0.3-1-0.5-1.4c-0.2-0.4-0.6-0.6-1-0.8c-0.5-0.2-1-0.3-1.5-0.3c-0.5,0-0.9,0-1.4,0.1l-1.1,0.1v12.2h-3.5L497.8,17.8z
							"/>
						<path class="st0" d="M525.7,30.8c0,2.4-0.6,4.2-1.8,5.3c-1.2,1.1-3.1,1.7-5.6,1.7c-0.9,0-1.8-0.1-2.7-0.2
							c-0.8-0.1-1.6-0.3-2.4-0.6l0.6-3c0.6,0.3,1.3,0.5,2,0.6c0.8,0.2,1.6,0.2,2.5,0.2c1.1,0.1,2.1-0.2,3-0.9c0.6-0.7,1-1.6,0.9-2.6
							v-0.6c-0.4,0.2-0.9,0.4-1.4,0.5c-0.6,0.2-1.3,0.3-1.9,0.3c-0.9,0-1.8-0.1-2.6-0.5c-0.8-0.3-1.4-0.8-2-1.4
							c-0.6-0.6-1-1.4-1.3-2.2c-0.3-1-0.5-2-0.5-3.1c0-1,0.2-2,0.5-3c0.3-0.9,0.8-1.7,1.5-2.4c0.7-0.7,1.5-1.2,2.3-1.5
							c1-0.4,2.1-0.5,3.1-0.5c1.1,0,2.2,0.1,3.2,0.3c1,0.2,1.9,0.4,2.6,0.5L525.7,30.8z M516,24.4c-0.1,1.2,0.3,2.3,1,3.3
							c0.7,0.7,1.6,1,2.5,1c0.5,0,1.1-0.1,1.6-0.2c0.4-0.1,0.8-0.3,1.2-0.5v-7.8c-0.3-0.1-0.5-0.1-0.9-0.2c-0.5-0.1-0.9-0.1-1.4-0.1
							c-1.1-0.1-2.2,0.4-3,1.2C516.3,22.1,515.9,23.3,516,24.4z"/>
					</g>
					<g>
						<path class="st0" d="M389.5,62.2c-1.1,0-2.1,0-3.2-0.1c-1-0.1-1.9-0.2-2.8-0.4V42.3c0.4-0.1,0.9-0.2,1.4-0.2s1-0.1,1.5-0.2
							l1.5-0.1h1.4c1.1,0,2.3,0.1,3.4,0.3c0.9,0.1,1.9,0.5,2.7,0.9c0.7,0.4,1.4,0.9,1.8,1.6c0.4,0.8,0.7,1.7,0.6,2.6
							c0,0.9-0.2,1.7-0.7,2.4c-0.5,0.7-1.2,1.3-2,1.6c1.1,0.3,2,0.9,2.7,1.8c0.6,0.9,0.9,1.9,0.9,3c0.1,1.8-0.7,3.6-2.3,4.6
							C394.8,61.7,392.5,62.2,389.5,62.2z M387,50.1h2.6c1.1,0,2.2-0.2,3.3-0.6c0.8-0.4,1.2-1.2,1.2-2.1c0-0.9-0.4-1.6-1.2-2
							c-1-0.4-2.1-0.6-3.2-0.6c-0.6,0-1,0-1.5,0s-0.8,0-1.1,0.1L387,50.1z M387,53v6.1l1.3,0.1h1.3c0.7,0,1.4,0,2.1-0.1
							c0.6-0.1,1.1-0.3,1.7-0.5c0.5-0.2,0.8-0.6,1.1-1c0.3-0.5,0.4-1,0.4-1.6c0.1-1-0.4-1.9-1.2-2.4c-1.1-0.5-2.3-0.7-3.4-0.7
							L387,53z"/>
						<path class="st0" d="M406,62.3c-0.9,0-1.7-0.1-2.6-0.3c-0.6-0.2-1.2-0.5-1.6-0.9c-0.4-0.4-0.7-0.9-0.9-1.5
							c-0.2-0.7-0.3-1.3-0.3-2V40.2h3.5v16.7c0,0.4,0,0.7,0.1,1.1c0.1,0.3,0.2,0.5,0.4,0.7c0.2,0.2,0.4,0.4,0.7,0.5
							c0.4,0.1,0.8,0.2,1.1,0.2L406,62.3z"/>
						<path class="st0" d="M421.5,54.4c0,1.1-0.2,2.2-0.5,3.3c-0.3,0.9-0.8,1.8-1.5,2.5c-0.6,0.7-1.4,1.2-2.3,1.6
							c-1,0.4-2,0.6-3,0.6c-1,0-2-0.2-2.9-0.6c-0.9-0.4-1.6-0.9-2.3-1.6c-0.7-0.7-1.2-1.6-1.5-2.5c-0.4-1-0.6-2.1-0.5-3.3
							c0-1.1,0.2-2.2,0.5-3.2c0.3-0.9,0.8-1.8,1.5-2.5c0.6-0.7,1.4-1.2,2.3-1.6c0.9-0.4,1.9-0.6,2.9-0.6c1,0,2,0.2,2.9,0.6
							c0.9,0.4,1.7,0.9,2.3,1.6c0.7,0.7,1.2,1.6,1.5,2.5C421.4,52.2,421.5,53.3,421.5,54.4z M417.9,54.4c0.1-1.3-0.3-2.5-1-3.6
							c-1.2-1.5-3.3-1.7-4.8-0.6c-0.2,0.2-0.4,0.4-0.6,0.6c-0.7,1-1.1,2.3-1,3.6c-0.1,1.3,0.3,2.5,1,3.6c1.1,1.5,3.3,1.8,4.8,0.7
							c0.3-0.2,0.5-0.4,0.7-0.7C417.7,56.9,418,55.7,417.9,54.4L417.9,54.4z"/>
						<path class="st0" d="M436.1,60.5c0,2.4-0.6,4.2-1.8,5.3c-1.2,1.1-3.1,1.7-5.6,1.7c-0.9,0-1.8-0.1-2.7-0.2
							c-0.8-0.1-1.6-0.3-2.4-0.6l0.6-3c0.6,0.3,1.3,0.5,2,0.6c0.8,0.2,1.6,0.2,2.5,0.2c1.1,0.1,2.1-0.2,3-0.9c0.6-0.7,1-1.6,0.9-2.6
							v-0.6c-0.4,0.2-0.9,0.4-1.4,0.5c-0.6,0.2-1.3,0.3-2,0.3c-0.9,0-1.8-0.1-2.6-0.5c-0.8-0.3-1.5-0.8-2-1.4
							c-0.6-0.6-1.1-1.4-1.3-2.2c-0.3-1-0.5-2-0.5-3.1c0-1,0.2-2,0.5-3c0.3-0.9,0.8-1.7,1.5-2.4c0.7-0.7,1.5-1.2,2.4-1.5
							c1-0.4,2.1-0.6,3.1-0.5c1.1,0,2.2,0.1,3.2,0.3c1,0.2,1.9,0.4,2.6,0.5L436.1,60.5z M426.4,54.1c-0.1,1.2,0.3,2.3,1,3.2
							c0.6,0.7,1.6,1,2.5,1c0.5,0,1.1-0.1,1.6-0.2c0.4-0.1,0.8-0.3,1.2-0.5v-7.8c-0.3,0-0.6-0.1-0.9-0.2c-0.5,0-0.9-0.1-1.4-0.1
							c-1.1-0.1-2.2,0.4-2.9,1.3C426.7,51.7,426.4,52.9,426.4,54.1z"/>
					</g>
				</g>
			</g>
			<g>
				<g>
					<path class="st1" d="M34.9,0C15.6,0,0,15.6,0,34.9c0,14.5,9,27.4,22.5,32.6l2.9-8.2C12,54.1,5.3,38.9,10.5,25.5
						s20.3-20.2,33.8-15s20.2,20.3,15,33.8c-2.7,6.9-8.1,12.3-15,15l3,8.2c18-6.8,27.1-27,20.2-45C62.3,9,49.4,0,34.9,0"/>
					<path class="st0" d="M28.4,51.1l3-8.2c-4.4-1.9-6.4-7.1-4.5-11.5s7.1-6.4,11.5-4.5s6.4,7.1,4.5,11.5c-0.9,2-2.5,3.6-4.5,4.5
						l3,8.2c8.9-3.6,13.3-13.7,9.7-22.7c-3.6-8.9-13.7-13.3-22.7-9.7s-13.3,13.7-9.7,22.7C20.5,45.8,24,49.3,28.4,51.1"/>
				</g>
				<g>
					<path class="st1" d="M204.5,26.2c0.5,0,1,0,1.5,0.1c0.6,0,1.1,0.1,1.7,0.2l1.5,0.3c0.3,0.1,0.7,0.1,1,0.3l-0.9,4.4
						c-0.7-0.2-1.3-0.4-2-0.5c-1.2-0.2-2.4-0.3-3.6-0.3c-0.9,0-1.9,0.1-2.8,0.3l-1.8,0.4v23.9H194V28c1.5-0.5,3-0.9,4.5-1.2
						C200.4,26.4,202.5,26.2,204.5,26.2"/>
					<path class="st1" d="M222.3,26.1c1.8,0,3.5,0.2,5.2,0.8c2.6,0.9,4.5,3,5.2,5.7c0.4,1.4,0.6,2.9,0.6,4.4v17.8l-1.8,0.3
						c-0.8,0.1-1.7,0.3-2.6,0.4s-2.1,0.2-3.2,0.3s-2.3,0.1-3.4,0.1c-1.5,0-3-0.1-4.4-0.5c-1.3-0.3-2.4-0.8-3.5-1.6
						c-1-0.7-1.8-1.7-2.3-2.8c-0.6-1.3-0.9-2.8-0.8-4.2c0-1.4,0.3-2.8,1-4c0.6-1.1,1.5-2.1,2.6-2.7c1.2-0.7,2.5-1.2,3.8-1.5
						c1.5-0.3,3-0.5,4.6-0.5c0.5,0,1,0,1.6,0.1s1.1,0.1,1.6,0.2l1.3,0.3l0.8,0.2v-1.5c0-0.8-0.1-1.7-0.3-2.5c-0.2-0.8-0.5-1.5-1-2.2
						c-0.5-0.7-1.2-1.2-2-1.6c-1-0.4-2.1-0.6-3.2-0.6c-1.5,0-2.9,0.1-4.4,0.4c-1,0.2-1.9,0.4-2.8,0.7l-0.6-4.2
						c1.1-0.4,2.2-0.7,3.3-0.8C219,26.2,220.6,26,222.3,26.1 M222.8,51.5c1.2,0,2.3,0,3.2-0.1c0.8,0,1.6-0.1,2.3-0.3v-8.5
						c-0.6-0.2-1.2-0.4-1.8-0.5c-1-0.1-2-0.2-3-0.2c-0.8,0-1.6,0.1-2.4,0.2c-0.8,0.1-1.6,0.3-2.4,0.7c-0.7,0.3-1.3,0.8-1.8,1.4
						c-0.5,0.7-0.7,1.5-0.7,2.4c-0.2,1.5,0.5,3,1.8,3.8C219.4,51.2,221.1,51.6,222.8,51.5"/>
					<path class="st1" d="M257.1,12.2h5.1v42.9c-3.6,0.4-7.2,0.6-10.8,0.7c-2,0-4-0.3-5.9-1c-1.7-0.7-3.2-1.7-4.5-3
						c-1.3-1.3-2.3-2.9-2.9-4.7c-0.7-2-1-4.1-1-6.2c0-2,0.3-4.1,0.9-6c0.5-1.7,1.3-3.3,2.5-4.7c1.1-1.3,2.5-2.4,4-3.1
						c1.7-0.8,3.6-1.1,5.5-1.1c1.5,0,2.9,0.2,4.4,0.7c1,0.3,1.9,0.7,2.8,1.2V12.2z M257.1,32.8c-0.8-0.6-1.7-1.1-2.7-1.5
						c-1.2-0.5-2.5-0.7-3.8-0.7c-1.3,0-2.6,0.2-3.7,0.8c-1,0.5-1.9,1.3-2.5,2.2c-0.7,1-1.2,2.1-1.4,3.3c-0.3,1.3-0.4,2.7-0.4,4.1
						c0,3.3,0.8,5.9,2.5,7.7c1.6,1.8,3.9,2.4,6.6,2.4c1.9,0,3.7-0.1,5.6-0.3V32.8z"/>
					<path class="st1" d="M312.6,51.5c1.6,0.1,3.2-0.2,4.6-0.8c1-0.5,1.6-1.5,1.5-2.6c0.1-1.2-0.5-2.3-1.5-3c-1.5-1-3.1-1.8-4.9-2.5
						c-1.1-0.4-2.1-0.9-3.1-1.3c-0.9-0.4-1.8-1-2.6-1.6c-0.7-0.6-1.3-1.4-1.7-2.2c-0.5-1-0.7-2.1-0.7-3.2c-0.1-2.3,0.9-4.6,2.8-6
						c2.2-1.6,4.9-2.4,7.6-2.2c0.8,0,1.6,0,2.4,0.1c0.8,0.1,1.5,0.2,2.2,0.3s1.3,0.3,1.8,0.4s0.9,0.3,1.2,0.4l-0.9,4.4
						c-0.8-0.4-1.7-0.7-2.6-0.9c-1.4-0.3-2.8-0.5-4.2-0.5c-1.3,0-2.6,0.3-3.7,0.8c-1,0.5-1.6,1.5-1.6,2.6c0,0.6,0.1,1.1,0.4,1.6
						c0.3,0.5,0.6,0.9,1.1,1.3c0.6,0.4,1.2,0.8,1.8,1.1c0.7,0.3,1.6,0.7,2.6,1c1.4,0.5,2.5,1,3.6,1.5c1,0.4,1.9,1,2.7,1.7
						c0.7,0.7,1.3,1.5,1.7,2.4c0.4,1.1,0.6,2.2,0.6,3.4c0.1,2.4-1,4.7-2.9,6c-2,1.3-4.7,2-8.3,2c-2,0.1-4-0.2-5.9-0.6
						c-1-0.3-1.9-0.6-2.9-1l0.9-4.4c0.6,0.2,1.5,0.5,2.8,1C309.3,51.3,311,51.5,312.6,51.5"/>
					<path class="st1" d="M299.7,55.2l-11.3,0.6c-1.9,0.1-3.8-0.2-5.6-1c-1.4-0.6-2.6-1.5-3.6-2.7c-0.9-1.2-1.6-2.7-1.9-4.2
						c-0.4-1.7-0.6-3.5-0.5-5.3v-16h5.1v15c0,1.5,0.1,3,0.4,4.5c0.2,1.1,0.6,2.1,1.2,3c0.5,0.8,1.3,1.3,2.2,1.7
						c1.2,0.3,2.5,0.3,3.8,0.2c3.1-0.2,3.9-0.3,5.3-0.4V26.8h5.1L299.7,55.2z"/>
					<rect x="267" y="26.8" class="st1" width="5.1" height="28.4"/>
					<path class="st1" d="M272.8,15.5c0,1.8-1.5,3.3-3.3,3.3s-3.3-1.5-3.3-3.3s1.5-3.3,3.3-3.3l0,0
						C271.3,12.2,272.8,13.7,272.8,15.5"/>
					<path class="st0" d="M151.6,26.8c-3.5-0.4-7.1-0.6-10.6-0.6c-2,0-3.9,0.3-5.8,1.1c-1.6,0.7-3.1,1.7-4.3,3
						c-1.2,1.3-2.1,2.8-2.7,4.5c-0.6,1.8-1,3.8-0.9,5.7c0,2.7,0.3,5.4,1,8.1c0.6,1.6,1.5,3.1,2.7,4.3c1.1,1.1,2.5,2,4,2.5
						c1.5,0.6,3.2,0.8,4.8,0.8c1.5,0,3-0.2,4.4-0.7c0.9-0.3,1.7-0.7,2.5-1.1v1.2c0,2.6-0.7,4.5-2,5.7s-3.5,1.8-6.5,1.8
						c-0.7,0-5.5,0-7,0v4.4c1.5,0,6.2,0,6.9,0c4.6,0,8-1,10.3-3c2.3-2,3.4-5.2,3.4-9.5L151.6,26.8z M143.9,51.2
						c-1.2,0.4-2.5,0.6-3.7,0.6c-1,0-2-0.2-2.9-0.5c-0.9-0.4-1.8-1-2.4-1.7c-0.8-0.8-1.3-1.8-1.7-2.9c-0.5-2-0.7-4.1-0.7-6.2
						c-0.1-2.6,0.7-5.1,2.2-7.1c1.6-1.8,3.9-2.8,6.3-2.7c1.2,0,2.3,0,3.5,0.2c0.7,0.1,1.3,0.2,2,0.4v18.6
						C145.7,50.4,144.8,50.9,143.9,51.2"/>
					<path class="st0" d="M123.9,41c0,2.1-0.3,4.2-1,6.1c-0.6,1.7-1.5,3.3-2.8,4.7c-1.2,1.3-2.6,2.3-4.2,3c-3.4,1.4-7.3,1.4-10.7,0
						c-1.6-0.7-3.1-1.7-4.2-3c-1.2-1.4-2.2-3-2.8-4.7c-0.7-2-1-4-1-6.1c0-2.1,0.3-4.1,1-6.1c0.6-1.7,1.5-3.3,2.8-4.7
						c1.2-1.3,2.6-2.3,4.2-3c3.4-1.4,7.3-1.4,10.7,0c1.6,0.7,3.1,1.7,4.2,3c1.2,1.4,2.2,3,2.8,4.7C123.5,36.9,123.9,38.9,123.9,41
						 M118.6,41c0.1-2.7-0.6-5.4-2.2-7.6c-2.6-3.2-7.4-3.8-10.6-1.1c-0.4,0.3-0.8,0.7-1.1,1.1c-1.5,2.2-2.3,4.9-2.2,7.6
						c-0.1,2.7,0.6,5.4,2.2,7.6c2.6,3.2,7.4,3.8,10.6,1.1c0.4-0.3,0.8-0.7,1.1-1.1C117.9,46.4,118.7,43.7,118.6,41"/>
					<path class="st0" d="M166.3,26.8l11.3-0.6c1.9-0.1,3.8,0.2,5.6,1c1.4,0.6,2.6,1.5,3.6,2.7c0.9,1.2,1.6,2.6,1.9,4.1
						c0.4,1.7,0.6,3.5,0.5,5.3v15.9h-5.1V40.3c0-1.5-0.1-3-0.4-4.5c-0.2-1.1-0.6-2.1-1.2-3c-0.5-0.8-1.3-1.3-2.2-1.7
						c-1.1-0.3-2.3-0.3-3.4-0.2l-5.6,0.3v23.9h-5.1L166.3,26.8z"/>
					<path class="st0" d="M93.3,55.7c-0.3-0.2-6.3-3.8-6.3-9V12.2h5.1v34.5c0,3,4.2,5.6,4.3,5.7L93.3,55.7z"/>
					<rect x="156.4" y="26.8" class="st0" width="5.1" height="28.4"/>
					<path class="st1" d="M162.3,15.5c0,1.8-1.5,3.3-3.3,3.3s-3.3-1.5-3.3-3.3s1.5-3.3,3.3-3.3c0,0,0,0,0,0
						C160.8,12.2,162.3,13.7,162.3,15.5"/>
					<path class="st2" d="M328.6,49c1.6,0,2.9,1.3,2.9,2.9c0,1.6-1.3,2.9-2.9,2.9c-1.6,0-2.9-1.3-2.9-2.9c0,0,0,0,0,0
						C325.7,50.3,327,49,328.6,49 M328.6,48.6c-1.8,0-3.3,1.5-3.3,3.3c0,1.8,1.5,3.3,3.3,3.3s3.3-1.5,3.3-3.3c0,0,0,0,0,0
						C331.9,50.1,330.4,48.6,328.6,48.6C328.6,48.6,328.6,48.6,328.6,48.6"/>
					<path class="st2" d="M329.1,52.1l0.2,0.3c0.1,0.1,0.2,0.2,0.2,0.3s0.2,0.3,0.3,0.4s0.1,0.3,0.2,0.4h-0.5l-0.2-0.4
						c-0.1-0.1-0.1-0.3-0.2-0.4l-0.2-0.3c-0.1-0.1-0.1-0.2-0.2-0.3h-0.7v1.3h-0.5v-3.3c0.1,0,0.3-0.1,0.5-0.1h0.4
						c0.4,0,0.8,0.1,1.1,0.3c0.4,0.3,0.5,0.9,0.2,1.4C329.5,51.9,329.3,52.1,329.1,52.1 M328.4,50.5h-0.5v1.3h0.3c0.1,0,0.3,0,0.4,0
						c0.1,0,0.2,0,0.3-0.1c0.1,0,0.2-0.1,0.2-0.2c0.1-0.1,0.1-0.2,0.1-0.3c0-0.1,0-0.2-0.1-0.3c0-0.1-0.1-0.1-0.2-0.2
						c-0.1,0-0.2-0.1-0.3-0.1C328.6,50.6,328.5,50.6,328.4,50.5"/>
				</g>
			</g>
		</g>
	</g>
</g>
</svg>
