
<svg width="100" height="100" viewBox="0 0 100 100" fill="none" xmlns="http://www.w3.org/2000/svg">
<path d="M55.082 55.0082L43.8273 66.2618C43.6351 66.454 43.3502 66.6428 43.0641 66.6428H40.6894C40.4033 66.6428 40.1173 66.5479 39.9262 66.3568L37.0653 63.4959C36.5881 63.0187 36.5881 62.3515 37.0653 61.8743L49.5604 49.3792C50.0376 48.902 50.7048 48.902 51.182 49.3792L55.1883 53.3856C55.5694 53.8628 55.5694 54.626 55.0933 55.0071L55.082 55.0082ZM55.0933 71.9847L52.2325 74.8455C52.0402 75.0378 51.7553 75.2266 51.4692 75.2266H49.0945C48.8084 75.2266 48.5224 75.1316 48.3313 74.9405L45.4704 72.0797C44.9932 71.6025 44.9932 70.9353 45.4704 70.4581L49.4767 66.4517C49.9539 65.9746 50.6211 65.9746 51.0983 66.4517L55.1046 70.4581C55.5818 70.7442 55.5818 71.5075 55.1046 71.9847H55.0933ZM35.4336 57.8714C35.2413 58.0636 34.9564 58.2524 34.6703 58.2524H32.2029C31.9168 58.2524 31.6307 58.1575 31.4396 57.9664L28.5788 55.1055C28.1016 54.6283 28.1016 53.9611 28.5788 53.4839L49.5491 32.4989C50.0263 32.0217 50.6935 32.0217 51.1706 32.4989L55.177 36.5052C55.6542 36.9824 55.6542 37.6496 55.177 38.1268L35.4336 57.8714ZM55.9414 20.2898C52.7933 17.2367 47.7387 17.2367 44.6867 20.2898L16.3584 48.6182C15.6115 49.3527 15.0183 50.2286 14.6134 51.1947C14.2085 52.1609 14 53.198 14 54.2455C14 55.2931 14.2085 56.3302 14.6134 57.2963C15.0183 58.2624 15.6115 59.1383 16.3584 59.8729L36.4841 79.9985C37.9145 81.239 39.7271 82 41.7309 82H58.7084C60.9022 82 62.8923 81.1406 64.3363 79.6254L84.0798 59.8819C87.1329 56.8288 87.1329 51.7742 84.0798 48.6272L55.9414 20.2898Z" fill="white"/>
</svg>
