<svg id="bf204daa-c3a0-4f94-9c92-0bcc61153bc2" data-name="Layer 1" xmlns="http://www.w3.org/2000/svg" viewBox="0 0 173.53 130.43">
  <defs>
    <style>
      .b23e5339-115e-4098-a544-5d05ba4a8c75 {
        fill: #38b55a;
      }

      .abce3789-a646-430b-b1f4-54b2797e779e {
        fill: #008ecf;
      }
    </style>
  </defs>
  <g>
    <path class="b23e5339-115e-4098-a544-5d05ba4a8c75" d="M72.2,92.09A13.48,13.48,0,0,1,67,91.16a9.73,9.73,0,0,1-3.64-2.56,10.26,10.26,0,0,1-2.11-3.84,16.1,16.1,0,0,1-.69-4.8V60.3a1.8,1.8,0,0,1,1.8-1.8H63a1.81,1.81,0,0,1,1.8,1.8V79.48q0,4.62,2,6.7a7.1,7.1,0,0,0,5.33,2.09,8.51,8.51,0,0,0,3-.51,6,6,0,0,0,2.33-1.58A7.32,7.32,0,0,0,79,83.45a13.25,13.25,0,0,0,.53-4V56a1.8,1.8,0,0,1,1.8-1.8h.71a1.79,1.79,0,0,1,1.8,1.8V80a16.1,16.1,0,0,1-.69,4.8,10.3,10.3,0,0,1-2.13,3.84,10.06,10.06,0,0,1-3.64,2.56A13.38,13.38,0,0,1,72.2,92.09Z"/>
    <path class="b23e5339-115e-4098-a544-5d05ba4a8c75" d="M91.3,89.63V52a1.79,1.79,0,0,1,1.8-1.8h15.19a1.8,1.8,0,0,1,1.8,1.8v.09a1.8,1.8,0,0,1-1.8,1.79H97.41a1.8,1.8,0,0,0-1.8,1.8V66.9a1.79,1.79,0,0,0,1.8,1.8h9.28a1.81,1.81,0,0,1,1.8,1.8h0a1.8,1.8,0,0,1-1.8,1.8H97.41a1.8,1.8,0,0,0-1.8,1.8V85.94a1.8,1.8,0,0,0,1.8,1.8h12a1.8,1.8,0,0,1,1.8,1.8v.09a1.8,1.8,0,0,1-1.8,1.79H93.1A1.79,1.79,0,0,1,91.3,89.63Z"/>
    <path class="b23e5339-115e-4098-a544-5d05ba4a8c75" d="M135.18,89.49v.14a1.79,1.79,0,0,1-1.8,1.79H118.46a1.8,1.8,0,0,1-1.8-1.79V36.28a1.8,1.8,0,0,1,1.8-1.8h.71a1.8,1.8,0,0,1,1.8,1.8V85.89a1.79,1.79,0,0,0,1.8,1.8h10.61A1.8,1.8,0,0,1,135.18,89.49Z"/>
    <path class="abce3789-a646-430b-b1f4-54b2797e779e" d="M120.54,26.75l.08-.11c0-.05,0-.11.08-.17s.06-.1.08-.16l0-.15a1.17,1.17,0,0,0,.06-.2c0-.06,0-.1,0-.16s0-.15,0-.2l0-.13a2.17,2.17,0,0,0,0-.25s0,0,0,0,0-.07,0-.12a1.8,1.8,0,0,0-.08-.21l-.09-.16a.86.86,0,0,0-.1-.16,1.29,1.29,0,0,0-.15-.17l-.09-.1,0,0-.17-.13L120,24l-.14-.07a3,3,0,0,0-.53-.18h-.13l-.25,0-.13,0a1.15,1.15,0,0,0-.36.06c-.05,0,1.06-.25-.36.08s-7.31,1.78-9.68,2.46A1.94,1.94,0,0,0,107,28.66a1.89,1.89,0,0,0,1.83,1.45,1.17,1.17,0,0,0,.47-.06c1-.24,2.12-.53,3.17-.79-17,13.6-37.81,19.08-59,21.73-4.41.37-8.88.75-13.28,1-1.24.09-1.76.54-1.77,1.85,0,11.82,0,23.84,0,35.67,0,1.31.72,1.51,1.77,1.85a1.38,1.38,0,0,0,.7,0c1.06-.32,1.73-.57,1.76-1.86.15-5.36-.08-11,.11-16.34.05-1.29.56-1.72,1.81-1.83,2.86-.23,6.05.06,8.91-.11,1.26-.08,1.54-.72,1.86-1.76a0,0,0,0,0,0-.05c-.33-1-.61-1.69-1.87-1.76-2.86-.17-6,.13-8.9-.08-1.26-.09-1.75-.56-1.81-1.82-.13-2.67-.08-5.64,0-8.32,0-1.19.52-1.58,1.55-1.88,27.47-1.92,56.17-8.45,76.14-28.65,0,0,0,0,0,0Z"/>
  </g>
</svg>
