<?xml version="1.0" encoding="utf-8"?>
<!-- Generator: Adobe Illustrator 24.1.3, SVG Export Plug-In . SVG Version: 6.00 Build 0)  -->
<svg version="1.1" id="Layer_1" xmlns="http://www.w3.org/2000/svg" xmlns:xlink="http://www.w3.org/1999/xlink" x="0px" y="0px"
	 viewBox="0 0 32 32" style="enable-background:new 0 0 32 32;" xml:space="preserve">
<style type="text/css">
	.st0{fill-rule:evenodd;clip-rule:evenodd;fill:#FFFFFF;}
</style>
<g>
	<path class="st0" d="M26,26h-4.2v-6.6c0-1.6,0-3.6-2.2-3.6c-2.2,0-2.5,1.7-2.5,3.5V26h-4.2V12.5h4v1.8H17c0.6-1.1,1.9-2.2,4-2.2
		c4.2,0,5,2.8,5,6.4V26L26,26z M8.2,10.7c-1.3,0-2.4-1.1-2.4-2.4s1.1-2.4,2.4-2.4s2.4,1.1,2.4,2.4S9.6,10.7,8.2,10.7z M6.1,12.5h4.2
		V26H6.1V12.5z"/>
</g>
</svg>
