<svg id="a4116fbe-4c3d-4861-860d-a1320a319fbf" data-name="Layer 1" xmlns="http://www.w3.org/2000/svg" viewBox="0 0 183.43 26.76">
  <defs>
    <style>
      .f59b6854-1ab3-42a7-9795-238a1a4c64df {
        fill: #008ecf;
      }

      .ee0e0057-cc00-4bcc-944a-2b3794145b29 {
        fill: #09263c;
      }
    </style>
  </defs>
  <g>
    <g>
      <g>
        <g>
          <path class="f59b6854-1ab3-42a7-9795-238a1a4c64df" d="M13.83,0a13.83,13.83,0,0,0-4.9,26.76L10.1,23.5a10.37,10.37,0,1,1,7.46,0l1.16,3.26A13.83,13.83,0,0,0,13.83,0"/>
          <path class="ee0e0057-cc00-4bcc-944a-2b3794145b29" d="M11.26,20.25,12.43,17a3.46,3.46,0,1,1,2.79,0l1.17,3.26a6.92,6.92,0,1,0-5.13,0"/>
        </g>
        <g>
          <path class="ee0e0057-cc00-4bcc-944a-2b3794145b29" d="M81.07,10.38l.59,0c.23,0,.45.05.66.09l.6.11.4.1L83,12.46a6.21,6.21,0,0,0-.79-.21,7.79,7.79,0,0,0-1.42-.11,6,6,0,0,0-1.11.11l-.73.17v9.46h-2V11.1a12.76,12.76,0,0,1,1.77-.49,11.61,11.61,0,0,1,2.39-.23"/>
          <path class="ee0e0057-cc00-4bcc-944a-2b3794145b29" d="M88.13,10.34a5.76,5.76,0,0,1,2,.31,3.36,3.36,0,0,1,1.35.89,3.3,3.3,0,0,1,.72,1.36,6.4,6.4,0,0,1,.22,1.75v7l-.73.11c-.31.06-.66.1-1,.15l-1.26.11c-.46,0-.91.06-1.36.06a7.38,7.38,0,0,1-1.75-.2,3.92,3.92,0,0,1-1.39-.61A2.87,2.87,0,0,1,84,20.19a4,4,0,0,1-.32-1.67,3.13,3.13,0,0,1,.38-1.6,2.89,2.89,0,0,1,1-1.08,4.56,4.56,0,0,1,1.51-.61A8.32,8.32,0,0,1,88.43,15l.63,0a5.77,5.77,0,0,1,.62.09l.51.09.3.07v-.56a4.69,4.69,0,0,0-.11-1A2.29,2.29,0,0,0,90,12.9a2,2,0,0,0-.77-.6A3,3,0,0,0,88,12.07a9.88,9.88,0,0,0-1.74.14,6.51,6.51,0,0,0-1.11.29l-.24-1.66a5.93,5.93,0,0,1,1.3-.34,11,11,0,0,1,2-.16m.17,10.09c.48,0,.9,0,1.27,0a5.17,5.17,0,0,0,.92-.12V16.92a2.74,2.74,0,0,0-.71-.18,7.71,7.71,0,0,0-1.18-.08,6.58,6.58,0,0,0-1,.07,2.79,2.79,0,0,0-.93.27,1.83,1.83,0,0,0-.7.56,1.47,1.47,0,0,0-.29.94,1.61,1.61,0,0,0,.7,1.51,3.61,3.61,0,0,0,1.88.42"/>
          <path class="ee0e0057-cc00-4bcc-944a-2b3794145b29" d="M101.93,4.85h2v17a38,38,0,0,1-4.26.26,6.38,6.38,0,0,1-2.34-.41,4.93,4.93,0,0,1-1.78-1.17,5.09,5.09,0,0,1-1.13-1.85,7.05,7.05,0,0,1-.4-2.46,8.1,8.1,0,0,1,.33-2.38,5.35,5.35,0,0,1,1-1.86,4.46,4.46,0,0,1,1.59-1.22,5.06,5.06,0,0,1,2.15-.43,5.51,5.51,0,0,1,2.84.76Zm0,8.15a4.41,4.41,0,0,0-1.06-.58,4,4,0,0,0-1.52-.28,3.23,3.23,0,0,0-1.48.31,2.74,2.74,0,0,0-1,.87,3.47,3.47,0,0,0-.56,1.31,6.94,6.94,0,0,0-.17,1.62,4.35,4.35,0,0,0,1,3,3.29,3.29,0,0,0,2.62,1c.54,0,2-.08,2.21-.13Z"/>
          <path class="ee0e0057-cc00-4bcc-944a-2b3794145b29" d="M124,20.43a3.93,3.93,0,0,0,1.83-.33,1.08,1.08,0,0,0,.59-1,1.37,1.37,0,0,0-.58-1.17,9,9,0,0,0-1.93-1c-.43-.17-.85-.35-1.24-.53a4.19,4.19,0,0,1-1-.64,2.64,2.64,0,0,1-.69-.89,2.71,2.71,0,0,1-.26-1.27,2.84,2.84,0,0,1,1.1-2.37,4.69,4.69,0,0,1,3-.88c.32,0,.64,0,1,.05s.62.08.89.13l.73.16a3.78,3.78,0,0,1,.48.16l-.36,1.73a4.78,4.78,0,0,0-1-.36,6.72,6.72,0,0,0-1.67-.18,3.12,3.12,0,0,0-1.47.33,1.12,1.12,0,0,0-.63,1.05,1.45,1.45,0,0,0,.14.65,1.47,1.47,0,0,0,.43.51A3.8,3.8,0,0,0,124,15c.29.13.63.27,1,.42s1,.4,1.43.59a4.67,4.67,0,0,1,1.07.68,2.59,2.59,0,0,1,.68.95,3.33,3.33,0,0,1,.24,1.35,2.69,2.69,0,0,1-1.16,2.36,5.79,5.79,0,0,1-3.3.8,8.44,8.44,0,0,1-2.34-.25,10,10,0,0,1-1.15-.38l.37-1.73,1.1.39a6.52,6.52,0,0,0,2,.26"/>
          <path class="ee0e0057-cc00-4bcc-944a-2b3794145b29" d="M118.83,21.88l-4.48.24a4.94,4.94,0,0,1-2.23-.38,3.5,3.5,0,0,1-1.42-1.06A4.27,4.27,0,0,1,110,19a9.7,9.7,0,0,1-.21-2.1V10.62h2v5.89a10.12,10.12,0,0,0,.14,1.78,2.94,2.94,0,0,0,.47,1.19,1.84,1.84,0,0,0,.86.66,4.24,4.24,0,0,0,1.5.06c1.24-.09,1.53-.13,2.1-.17V10.62h2Z"/>
          <rect class="ee0e0057-cc00-4bcc-944a-2b3794145b29" x="105.83" y="10.62" width="2.01" height="11.26"/>
          <path class="ee0e0057-cc00-4bcc-944a-2b3794145b29" d="M108.14,6.15a1.3,1.3,0,1,1-1.3-1.3,1.3,1.3,0,0,1,1.3,1.3"/>
          <path class="f59b6854-1ab3-42a7-9795-238a1a4c64df" d="M60.12,10.62a40.58,40.58,0,0,0-4.22-.24,6,6,0,0,0-2.3.42A5.14,5.14,0,0,0,51.88,12a4.93,4.93,0,0,0-1.07,1.78A6.53,6.53,0,0,0,50.44,16a12,12,0,0,0,.41,3.21,4.87,4.87,0,0,0,1.06,1.7,4.13,4.13,0,0,0,1.57,1,5.53,5.53,0,0,0,1.92.33,5.42,5.42,0,0,0,2.75-.72V22a3,3,0,0,1-.79,2.28,3.86,3.86,0,0,1-2.59.71H52v1.74h2.73a6.09,6.09,0,0,0,4.08-1.17,4.76,4.76,0,0,0,1.34-3.77Zm-3.06,9.67a4.58,4.58,0,0,1-1.47.23,3.21,3.21,0,0,1-1.14-.22,2.65,2.65,0,0,1-1-.67,3.23,3.23,0,0,1-.67-1.15A10.68,10.68,0,0,1,52.54,16a4.24,4.24,0,0,1,.88-2.81,3,3,0,0,1,2.5-1.06,10.09,10.09,0,0,1,1.38.07,6.56,6.56,0,0,1,.81.17v7.36a3.6,3.6,0,0,1-1.06.53"/>
          <path class="f59b6854-1ab3-42a7-9795-238a1a4c64df" d="M49.1,16.25a7.16,7.16,0,0,1-.39,2.43,5.54,5.54,0,0,1-1.09,1.86,4.79,4.79,0,0,1-1.68,1.2,5.56,5.56,0,0,1-4.24,0A4.79,4.79,0,0,1,40,20.54a5.56,5.56,0,0,1-1.1-1.86,7.16,7.16,0,0,1-.39-2.43,7.08,7.08,0,0,1,.39-2.41A5.55,5.55,0,0,1,40,12a4.79,4.79,0,0,1,1.68-1.2,5.56,5.56,0,0,1,4.24,0A4.79,4.79,0,0,1,47.62,12a5.53,5.53,0,0,1,1.09,1.88,7.08,7.08,0,0,1,.39,2.41m-2.1,0a4.84,4.84,0,0,0-.85-3,3,3,0,0,0-4.66,0,4.84,4.84,0,0,0-.86,3,4.84,4.84,0,0,0,.86,3,3,3,0,0,0,4.66,0,4.84,4.84,0,0,0,.85-3"/>
          <path class="f59b6854-1ab3-42a7-9795-238a1a4c64df" d="M65.92,10.62l4.49-.24a5,5,0,0,1,2.23.38,3.57,3.57,0,0,1,1.42,1.06,4.11,4.11,0,0,1,.74,1.64,9.09,9.09,0,0,1,.22,2.1v6.32H73V16a10.12,10.12,0,0,0-.14-1.78A3.09,3.09,0,0,0,72.4,13a1.91,1.91,0,0,0-.87-.66,3.67,3.67,0,0,0-1.36-.07l-2.23.11v9.48h-2Z"/>
          <path class="f59b6854-1ab3-42a7-9795-238a1a4c64df" d="M37,22.1c-.1-.06-2.48-1.51-2.48-3.57V4.85h2V18.53c0,1.21,1.67,2.24,1.69,2.25Z"/>
          <rect class="f59b6854-1ab3-42a7-9795-238a1a4c64df" x="62.02" y="10.62" width="2.01" height="11.26"/>
          <path class="f59b6854-1ab3-42a7-9795-238a1a4c64df" d="M64.33,6.15A1.3,1.3,0,1,1,63,4.85a1.3,1.3,0,0,1,1.3,1.3"/>
          <path class="ee0e0057-cc00-4bcc-944a-2b3794145b29" d="M130.26,19.44a1.14,1.14,0,1,1-1.14,1.14,1.14,1.14,0,0,1,1.14-1.14m0-.16a1.3,1.3,0,1,0,1.3,1.3,1.3,1.3,0,0,0-1.3-1.3"/>
          <path class="ee0e0057-cc00-4bcc-944a-2b3794145b29" d="M130.47,20.65a.52.52,0,0,1,.08.11,1.47,1.47,0,0,1,.1.13l.1.16.08.16h-.2l-.09-.15-.09-.14-.09-.13-.08-.1H130v.52h-.18V19.9l.17,0h.18a.64.64,0,0,1,.42.11.35.35,0,0,1,.15.31.32.32,0,0,1-.07.22.36.36,0,0,1-.21.14m-.28-.62H130v.5h.31l.13,0a.27.27,0,0,0,.08-.07.3.3,0,0,0,0-.26l-.08-.08-.12,0h-.14"/>
        </g>
      </g>
      <rect class="ee0e0057-cc00-4bcc-944a-2b3794145b29" x="139.92" y="4.85" width="0.58" height="21.88" rx="0.29"/>
    </g>
    <g>
      <path class="ee0e0057-cc00-4bcc-944a-2b3794145b29" d="M155.36,22.42h-.8c-.29,0-.58,0-.86-.06s-.58-.05-.86-.09a5.72,5.72,0,0,1-.78-.14V10.27a5.72,5.72,0,0,1,.78-.14c.28,0,.57-.07.86-.09l.85,0c.28,0,.55,0,.79,0a11.38,11.38,0,0,1,2,.16,4.64,4.64,0,0,1,1.6.54,2.84,2.84,0,0,1,1.07,1,2.79,2.79,0,0,1,.39,1.52,2.69,2.69,0,0,1-.48,1.65,2.8,2.8,0,0,1-1.27,1,3.63,3.63,0,0,1,1.71,1,2.7,2.7,0,0,1,.64,1.94,3.13,3.13,0,0,1-1.35,2.76A7.79,7.79,0,0,1,155.36,22.42Zm-1.6-7.18h1.8a7.69,7.69,0,0,0,1.2-.09,2.89,2.89,0,0,0,1-.31,2,2,0,0,0,.65-.6,1.7,1.7,0,0,0,.24-.94,1.58,1.58,0,0,0-.25-.89,1.85,1.85,0,0,0-.68-.58,3.63,3.63,0,0,0-1-.33,7,7,0,0,0-1.24-.1c-.43,0-.78,0-1,0a6.34,6.34,0,0,0-.67.05Zm0,1.38v4.3l.46,0,.53,0h.72a11.13,11.13,0,0,0,1.44-.09,4.05,4.05,0,0,0,1.19-.35,2.1,2.1,0,0,0,.82-.68,2,2,0,0,0,.31-1.12,2.09,2.09,0,0,0-.23-1,1.7,1.7,0,0,0-.67-.66,3,3,0,0,0-1-.35,6.85,6.85,0,0,0-1.34-.11Z"/>
      <path class="ee0e0057-cc00-4bcc-944a-2b3794145b29" d="M165.35,22.49a3.13,3.13,0,0,1-2.15-.65,2.54,2.54,0,0,1-.64-1.92v-11l1.64-.28v11a2.5,2.5,0,0,0,.07.67.94.94,0,0,0,.23.43,1.22,1.22,0,0,0,.42.24,5.93,5.93,0,0,0,.66.13Z"/>
      <path class="ee0e0057-cc00-4bcc-944a-2b3794145b29" d="M174.45,17.73a5.87,5.87,0,0,1-.32,2,4.54,4.54,0,0,1-.89,1.51,3.83,3.83,0,0,1-1.37,1,4.23,4.23,0,0,1-1.72.35,4.28,4.28,0,0,1-1.73-.35,3.83,3.83,0,0,1-1.37-1,4.54,4.54,0,0,1-.89-1.51,6.25,6.25,0,0,1,0-4,4.49,4.49,0,0,1,.89-1.52,3.83,3.83,0,0,1,1.37-1,4.28,4.28,0,0,1,1.73-.35,4.23,4.23,0,0,1,1.72.35,3.83,3.83,0,0,1,1.37,1,4.49,4.49,0,0,1,.89,1.52A5.9,5.9,0,0,1,174.45,17.73Zm-1.71,0a3.93,3.93,0,0,0-.7-2.46,2.43,2.43,0,0,0-3.79,0,3.93,3.93,0,0,0-.7,2.46,3.89,3.89,0,0,0,.7,2.46,2.43,2.43,0,0,0,3.79,0A3.89,3.89,0,0,0,172.74,17.73Z"/>
      <path class="ee0e0057-cc00-4bcc-944a-2b3794145b29" d="M181.81,21.4a4.35,4.35,0,0,1-.82.36,4.11,4.11,0,0,1-1.42.22,4.64,4.64,0,0,1-1.56-.26,3.39,3.39,0,0,1-1.28-.82,3.83,3.83,0,0,1-.87-1.39,6,6,0,0,1,0-3.82,4,4,0,0,1,.88-1.44,4,4,0,0,1,1.4-1A4.83,4.83,0,0,1,180,13a10.66,10.66,0,0,1,2,.17c.57.11,1,.21,1.44.31v8.18a3.86,3.86,0,0,1-1.09,3.07,4.93,4.93,0,0,1-3.32.95,8.46,8.46,0,0,1-1.63-.14,8.6,8.6,0,0,1-1.33-.33l.3-1.43a7.4,7.4,0,0,0,1.2.34,7.31,7.31,0,0,0,1.49.15,3.1,3.1,0,0,0,2.11-.58,2.37,2.37,0,0,0,.65-1.85Zm0-6.81a5.12,5.12,0,0,0-.66-.13A8.25,8.25,0,0,0,180,14.4a2.49,2.49,0,0,0-2,.86,3.47,3.47,0,0,0-.71,2.29,3.9,3.9,0,0,0,.2,1.36,2.63,2.63,0,0,0,.55.94,2,2,0,0,0,.79.54,2.48,2.48,0,0,0,.93.18,3.76,3.76,0,0,0,1.19-.18,2.93,2.93,0,0,0,.87-.44Z"/>
    </g>
  </g>
</svg>
