<svg xmlns="http://www.w3.org/2000/svg" id="a4116fbe-4c3d-4861-860d-a1320a319fbf" data-name="Layer 1" viewBox="141 0 43.43 26.76" style="">
  <defs>
    <style>
      .f59b6854-1ab3-42a7-9795-238a1a4c64df {
        fill: #008ecf;
      }

      .ee0e0057-cc00-4bcc-944a-2b3794145b29 {
        fill: #09263c;
      }
    </style>
  </defs>
  <g>
    
    <g>
      <path class="ee0e0057-cc00-4bcc-944a-2b3794145b29" d="M155.36,22.42h-.8c-.29,0-.58,0-.86-.06s-.58-.05-.86-.09a5.72,5.72,0,0,1-.78-.14V10.27a5.72,5.72,0,0,1,.78-.14c.28,0,.57-.07.86-.09l.85,0c.28,0,.55,0,.79,0a11.38,11.38,0,0,1,2,.16,4.64,4.64,0,0,1,1.6.54,2.84,2.84,0,0,1,1.07,1,2.79,2.79,0,0,1,.39,1.52,2.69,2.69,0,0,1-.48,1.65,2.8,2.8,0,0,1-1.27,1,3.63,3.63,0,0,1,1.71,1,2.7,2.7,0,0,1,.64,1.94,3.13,3.13,0,0,1-1.35,2.76A7.79,7.79,0,0,1,155.36,22.42Zm-1.6-7.18h1.8a7.69,7.69,0,0,0,1.2-.09,2.89,2.89,0,0,0,1-.31,2,2,0,0,0,.65-.6,1.7,1.7,0,0,0,.24-.94,1.58,1.58,0,0,0-.25-.89,1.85,1.85,0,0,0-.68-.58,3.63,3.63,0,0,0-1-.33,7,7,0,0,0-1.24-.1c-.43,0-.78,0-1,0a6.34,6.34,0,0,0-.67.05Zm0,1.38v4.3l.46,0,.53,0h.72a11.13,11.13,0,0,0,1.44-.09,4.05,4.05,0,0,0,1.19-.35,2.1,2.1,0,0,0,.82-.68,2,2,0,0,0,.31-1.12,2.09,2.09,0,0,0-.23-1,1.7,1.7,0,0,0-.67-.66,3,3,0,0,0-1-.35,6.85,6.85,0,0,0-1.34-.11Z"></path>
      <path class="ee0e0057-cc00-4bcc-944a-2b3794145b29" d="M165.35,22.49a3.13,3.13,0,0,1-2.15-.65,2.54,2.54,0,0,1-.64-1.92v-11l1.64-.28v11a2.5,2.5,0,0,0,.07.67.94.94,0,0,0,.23.43,1.22,1.22,0,0,0,.42.24,5.93,5.93,0,0,0,.66.13Z"></path>
      <path class="ee0e0057-cc00-4bcc-944a-2b3794145b29" d="M174.45,17.73a5.87,5.87,0,0,1-.32,2,4.54,4.54,0,0,1-.89,1.51,3.83,3.83,0,0,1-1.37,1,4.23,4.23,0,0,1-1.72.35,4.28,4.28,0,0,1-1.73-.35,3.83,3.83,0,0,1-1.37-1,4.54,4.54,0,0,1-.89-1.51,6.25,6.25,0,0,1,0-4,4.49,4.49,0,0,1,.89-1.52,3.83,3.83,0,0,1,1.37-1,4.28,4.28,0,0,1,1.73-.35,4.23,4.23,0,0,1,1.72.35,3.83,3.83,0,0,1,1.37,1,4.49,4.49,0,0,1,.89,1.52A5.9,5.9,0,0,1,174.45,17.73Zm-1.71,0a3.93,3.93,0,0,0-.7-2.46,2.43,2.43,0,0,0-3.79,0,3.93,3.93,0,0,0-.7,2.46,3.89,3.89,0,0,0,.7,2.46,2.43,2.43,0,0,0,3.79,0A3.89,3.89,0,0,0,172.74,17.73Z"></path>
      <path class="ee0e0057-cc00-4bcc-944a-2b3794145b29" d="M181.81,21.4a4.35,4.35,0,0,1-.82.36,4.11,4.11,0,0,1-1.42.22,4.64,4.64,0,0,1-1.56-.26,3.39,3.39,0,0,1-1.28-.82,3.83,3.83,0,0,1-.87-1.39,6,6,0,0,1,0-3.82,4,4,0,0,1,.88-1.44,4,4,0,0,1,1.4-1A4.83,4.83,0,0,1,180,13a10.66,10.66,0,0,1,2,.17c.57.11,1,.21,1.44.31v8.18a3.86,3.86,0,0,1-1.09,3.07,4.93,4.93,0,0,1-3.32.95,8.46,8.46,0,0,1-1.63-.14,8.6,8.6,0,0,1-1.33-.33l.3-1.43a7.4,7.4,0,0,0,1.2.34,7.31,7.31,0,0,0,1.49.15,3.1,3.1,0,0,0,2.11-.58,2.37,2.37,0,0,0,.65-1.85Zm0-6.81a5.12,5.12,0,0,0-.66-.13A8.25,8.25,0,0,0,180,14.4a2.49,2.49,0,0,0-2,.86,3.47,3.47,0,0,0-.71,2.29,3.9,3.9,0,0,0,.2,1.36,2.63,2.63,0,0,0,.55.94,2,2,0,0,0,.79.54,2.48,2.48,0,0,0,.93.18,3.76,3.76,0,0,0,1.19-.18,2.93,2.93,0,0,0,.87-.44Z"></path>
    </g>
  </g>
</svg>