<svg id="e6fe8fcb-c30d-4fbc-bf36-764ce95e0fd0" data-name="Layer 1" xmlns="http://www.w3.org/2000/svg" viewBox="0 0 295.79 155.23">
  <defs>
    <style>
      .aa78b805-c53d-44b0-bcb2-2291090aef49, .f9a38dbe-31a5-406f-97e3-c5ca75e68564 {
        fill: none;
      }

      .b6419174-0bc5-4f3e-b37b-113558bbc081 {
        fill: #073857;
      }

      .a580ed4e-42bf-4be4-8849-82321dbb6d49 {
        fill: #008ecf;
      }

      .f9a38dbe-31a5-406f-97e3-c5ca75e68564 {
        stroke: #008ecf;
        stroke-linecap: round;
        stroke-linejoin: round;
        stroke-width: 2.82px;
      }
    </style>
  </defs>
  <rect class="aa78b805-c53d-44b0-bcb2-2291090aef49" width="295.79" height="155.23"/>
  <g>
    <path class="b6419174-0bc5-4f3e-b37b-113558bbc081" d="M46.51,77.71a3.46,3.46,0,0,0,1.42-.2.75.75,0,0,0,.42-.75.92.92,0,0,0-.54-.77,10.25,10.25,0,0,0-1.64-.75,16.42,16.42,0,0,1-1.55-.66,4.47,4.47,0,0,1-1.18-.81,3.31,3.31,0,0,1-.76-1.14A4.2,4.2,0,0,1,42.41,71a3.45,3.45,0,0,1,1.35-2.86,5.81,5.81,0,0,1,3.68-1.05,11.77,11.77,0,0,1,2.25.21,10.75,10.75,0,0,1,1.71.45l-.64,2.84a11.38,11.38,0,0,0-1.38-.39,7.09,7.09,0,0,0-1.67-.17c-1.14,0-1.71.31-1.71,1a1,1,0,0,0,.08.39.78.78,0,0,0,.29.33,3.75,3.75,0,0,0,.6.34,9.84,9.84,0,0,0,1,.41,15,15,0,0,1,2,.87,4.82,4.82,0,0,1,1.23.93,3,3,0,0,1,.64,1.11A5,5,0,0,1,52,76.81a3.25,3.25,0,0,1-1.43,2.88,7.11,7.11,0,0,1-4,1,11.27,11.27,0,0,1-2.84-.3,10.65,10.65,0,0,1-1.58-.49l.61-2.95a12.37,12.37,0,0,0,1.91.57A9.1,9.1,0,0,0,46.51,77.71Z"/>
    <path class="b6419174-0bc5-4f3e-b37b-113558bbc081" d="M54.55,64.28l3.64-.59v3.79h4.37v3H58.19V75a3.61,3.61,0,0,0,.4,1.84,1.75,1.75,0,0,0,1.63.68,7.35,7.35,0,0,0,1.21-.11,6,6,0,0,0,1.13-.31L63.07,80a10,10,0,0,1-1.46.46,8.57,8.57,0,0,1-2,.2,6.5,6.5,0,0,1-2.47-.41,3.87,3.87,0,0,1-1.56-1.12,4.24,4.24,0,0,1-.82-1.75,10.57,10.57,0,0,1-.23-2.27Z"/>
    <path class="b6419174-0bc5-4f3e-b37b-113558bbc081" d="M69.64,67.13a8.55,8.55,0,0,1,2.69.37,4.26,4.26,0,0,1,1.72,1A3.92,3.92,0,0,1,75,70.21a8.18,8.18,0,0,1,.27,2.18V80c-.52.11-1.25.25-2.18.4a21.46,21.46,0,0,1-3.37.23,10.5,10.5,0,0,1-2.26-.22,4.7,4.7,0,0,1-1.74-.72,3.3,3.3,0,0,1-1.13-1.3,4.54,4.54,0,0,1-.39-2,3.78,3.78,0,0,1,.45-1.91,3.59,3.59,0,0,1,1.21-1.24,5.59,5.59,0,0,1,1.74-.68,10.25,10.25,0,0,1,2-.2,11.57,11.57,0,0,1,1.26.06,4.8,4.8,0,0,1,.89.16v-.35a2,2,0,0,0-.56-1.48,2.67,2.67,0,0,0-2-.57,12.32,12.32,0,0,0-1.83.14,7.37,7.37,0,0,0-1.57.38l-.46-2.93c.21-.07.48-.14.79-.21s.67-.14,1-.2l1.19-.14C68.8,67.16,69.22,67.13,69.64,67.13Zm.3,10.65c.35,0,.7,0,1,0s.59,0,.78-.07V74.93a4.26,4.26,0,0,0-.66-.1,8,8,0,0,0-.8,0,7.54,7.54,0,0,0-1,.06,2.61,2.61,0,0,0-.79.23,1.38,1.38,0,0,0-.54.47,1.28,1.28,0,0,0-.19.73,1.24,1.24,0,0,0,.57,1.18A3.18,3.18,0,0,0,69.94,77.78Z"/>
    <path class="b6419174-0bc5-4f3e-b37b-113558bbc081" d="M86.28,70.7l-1.15-.26a7.07,7.07,0,0,0-1.42-.13,6.72,6.72,0,0,0-.82.06,4.82,4.82,0,0,0-.72.14v9.81H78.53V68.16a22.68,22.68,0,0,1,2.31-.65,13.57,13.57,0,0,1,3-.3l.71,0,.83.1.83.15a4.35,4.35,0,0,1,.71.21Z"/>
    <path class="b6419174-0bc5-4f3e-b37b-113558bbc081" d="M88.72,64.28l3.64-.59v3.79h4.37v3H92.36V75a3.61,3.61,0,0,0,.4,1.84,1.74,1.74,0,0,0,1.62.68,7.16,7.16,0,0,0,1.21-.11,5.9,5.9,0,0,0,1.14-.31L97.24,80a10.45,10.45,0,0,1-1.46.46,8.57,8.57,0,0,1-2,.2,6.5,6.5,0,0,1-2.47-.41,3.87,3.87,0,0,1-1.56-1.12A4.12,4.12,0,0,1,89,77.34a10.57,10.57,0,0,1-.23-2.27Z"/>
    <path class="b6419174-0bc5-4f3e-b37b-113558bbc081" d="M113.37,73c-.32,1.24-.67,2.46-1,3.69s-.76,2.45-1.16,3.68h-2.84c-.29-.68-.61-1.49-1-2.44s-.7-2-1.07-3.09-.74-2.29-1.13-3.54-.75-2.5-1.11-3.77h3.83c.14.58.28,1.22.43,1.91s.32,1.41.5,2.14.35,1.47.54,2.21.38,1.45.57,2.14c.22-.72.42-1.45.63-2.2s.4-1.49.58-2.21.37-1.42.54-2.1.32-1.31.45-1.89h2.64c.13.58.28,1.21.44,1.89s.33,1.38.51,2.1l.56,2.21c.2.75.4,1.48.61,2.2.2-.69.4-1.4.59-2.14s.39-1.48.56-2.21.33-1.44.49-2.14.3-1.33.43-1.91h3.78c-.36,1.27-.73,2.52-1.11,3.77s-.76,2.43-1.13,3.54-.72,2.15-1.07,3.09-.68,1.76-1,2.44h-2.84c-.4-1.23-.8-2.46-1.19-3.68S113.7,74.19,113.37,73Z"/>
    <path class="b6419174-0bc5-4f3e-b37b-113558bbc081" d="M128.67,63.76a2,2,0,0,1-.64,1.58,2.23,2.23,0,0,1-1.53.57,2.27,2.27,0,0,1-1.53-.57,2.26,2.26,0,0,1,0-3.15,2.27,2.27,0,0,1,1.53-.57,2.23,2.23,0,0,1,1.53.57A2,2,0,0,1,128.67,63.76Z"/>
    <rect class="b6419174-0bc5-4f3e-b37b-113558bbc081" x="124.69" y="67.48" width="3.64" height="12.85"/>
    <path class="b6419174-0bc5-4f3e-b37b-113558bbc081" d="M131.63,64.28l3.64-.59v3.79h4.37v3h-4.37V75a3.61,3.61,0,0,0,.4,1.84,1.75,1.75,0,0,0,1.63.68,7.35,7.35,0,0,0,1.21-.11,6,6,0,0,0,1.13-.31l.51,2.84a10,10,0,0,1-1.46.46,8.57,8.57,0,0,1-2,.2,6.5,6.5,0,0,1-2.47-.41,3.87,3.87,0,0,1-1.56-1.12,4.24,4.24,0,0,1-.82-1.75,10.57,10.57,0,0,1-.23-2.27Z"/>
    <path class="b6419174-0bc5-4f3e-b37b-113558bbc081" d="M142.6,80.32V62l3.63-.59v6.16a7.21,7.21,0,0,1,1-.24,6.14,6.14,0,0,1,1.11-.11,7,7,0,0,1,2.6.43,4.14,4.14,0,0,1,1.66,1.21,4.72,4.72,0,0,1,.88,1.86,10.32,10.32,0,0,1,.25,2.39v7.25H150V73.51a5,5,0,0,0-.45-2.49,1.8,1.8,0,0,0-1.67-.73,4.5,4.5,0,0,0-.92.08l-.77.18v9.77Z"/>
    <path class="a580ed4e-42bf-4be4-8849-82321dbb6d49" d="M166.82,63.76a2,2,0,0,1-.64,1.58,2.34,2.34,0,0,1-3.06,0,2.26,2.26,0,0,1,0-3.15,2.34,2.34,0,0,1,3.06,0A2,2,0,0,1,166.82,63.76Z"/>
    <rect class="b6419174-0bc5-4f3e-b37b-113558bbc081" x="162.84" y="67.48" width="3.64" height="12.85"/>
    <path class="b6419174-0bc5-4f3e-b37b-113558bbc081" d="M181.23,79.91c-.32.1-.7.19-1.12.28s-.87.17-1.33.23-.94.12-1.42.16-.94.06-1.38.06a8,8,0,0,1-2.83-.46,5.58,5.58,0,0,1-3.41-3.43,8.11,8.11,0,0,1-.45-2.78,9.52,9.52,0,0,1,.39-2.82A6.16,6.16,0,0,1,170.8,69a4.81,4.81,0,0,1,1.8-1.35,6,6,0,0,1,2.43-.46,6.25,6.25,0,0,1,1.36.14,7.47,7.47,0,0,1,1.2.42V62l3.64-.59ZM173,73.8a4.4,4.4,0,0,0,.76,2.71,2.59,2.59,0,0,0,2.25,1,8.52,8.52,0,0,0,.9,0c.28,0,.5,0,.68-.08V70.8a3,3,0,0,0-.89-.37,4.12,4.12,0,0,0-1.11-.14C173.87,70.29,173,71.46,173,73.8Z"/>
    <path class="b6419174-0bc5-4f3e-b37b-113558bbc081" d="M184,74a7.83,7.83,0,0,1,.53-3A6.37,6.37,0,0,1,186,68.87a5.84,5.84,0,0,1,2-1.3,6.22,6.22,0,0,1,2.29-.44,5.66,5.66,0,0,1,4.32,1.68,6.87,6.87,0,0,1,1.59,4.92c0,.21,0,.44,0,.7s0,.47-.05.67h-8.25a2.4,2.4,0,0,0,1.05,1.78,4.22,4.22,0,0,0,2.49.66,10.77,10.77,0,0,0,2-.18,7.87,7.87,0,0,0,1.57-.46l.49,3a5.47,5.47,0,0,1-.78.29,9.21,9.21,0,0,1-1.09.26c-.4.07-.83.13-1.28.18a12.59,12.59,0,0,1-1.37.08,8.1,8.1,0,0,1-3-.52,5.86,5.86,0,0,1-2.13-1.4,5.69,5.69,0,0,1-1.25-2.11A8.69,8.69,0,0,1,184,74Zm8.55-1.39a4,4,0,0,0-.16-.91,2.43,2.43,0,0,0-.41-.78,2.32,2.32,0,0,0-.71-.56,2.28,2.28,0,0,0-1.06-.22,2.47,2.47,0,0,0-1.06.21,2.1,2.1,0,0,0-.73.55,2.54,2.54,0,0,0-.45.79,5,5,0,0,0-.23.92Z"/>
    <path class="b6419174-0bc5-4f3e-b37b-113558bbc081" d="M198.92,67.92a18.7,18.7,0,0,1,2.39-.5,19,19,0,0,1,3.08-.24,7.6,7.6,0,0,1,2.72.43,4.15,4.15,0,0,1,1.72,1.21,4.76,4.76,0,0,1,.91,1.86,10.29,10.29,0,0,1,.26,2.39v7.25h-3.64V73.51A4.91,4.91,0,0,0,205.9,71a1.89,1.89,0,0,0-1.73-.73l-.83,0-.79.09v9.91h-3.63Z"/>
    <path class="b6419174-0bc5-4f3e-b37b-113558bbc081" d="M213.18,64.28l3.64-.59v3.79h4.37v3h-4.37V75a3.61,3.61,0,0,0,.4,1.84,1.75,1.75,0,0,0,1.63.68,7.14,7.14,0,0,0,1.2-.11,5.9,5.9,0,0,0,1.14-.31L221.7,80a10.45,10.45,0,0,1-1.46.46,8.57,8.57,0,0,1-2,.2,6.5,6.5,0,0,1-2.47-.41,3.87,3.87,0,0,1-1.56-1.12,4.24,4.24,0,0,1-.82-1.75,10.57,10.57,0,0,1-.23-2.27Z"/>
    <path class="a580ed4e-42bf-4be4-8849-82321dbb6d49" d="M228.13,63.76a2,2,0,0,1-.65,1.58,2.33,2.33,0,0,1-3,0,2.23,2.23,0,0,1,0-3.15,2.33,2.33,0,0,1,3,0A2,2,0,0,1,228.13,63.76Z"/>
    <rect class="b6419174-0bc5-4f3e-b37b-113558bbc081" x="224.14" y="67.48" width="3.64" height="12.85"/>
    <path class="b6419174-0bc5-4f3e-b37b-113558bbc081" d="M231.08,64.28l3.64-.59v3.79h4.37v3h-4.37V75a3.61,3.61,0,0,0,.4,1.84,1.75,1.75,0,0,0,1.63.68,7.35,7.35,0,0,0,1.21-.11,6,6,0,0,0,1.13-.31L239.6,80a10,10,0,0,1-1.46.46,8.57,8.57,0,0,1-2,.2,6.5,6.5,0,0,1-2.47-.41,3.87,3.87,0,0,1-1.56-1.12,4.24,4.24,0,0,1-.82-1.75,10.57,10.57,0,0,1-.23-2.27Z"/>
    <path class="b6419174-0bc5-4f3e-b37b-113558bbc081" d="M253.72,67.48q-1.09,3.7-2.3,7t-2.62,6.3a15,15,0,0,1-1,1.87,6.09,6.09,0,0,1-1.12,1.27,4.11,4.11,0,0,1-1.39.73,6.38,6.38,0,0,1-1.79.23,7.11,7.11,0,0,1-1.58-.16,6.64,6.64,0,0,1-1.19-.35l.64-2.91a6.32,6.32,0,0,0,1,.27,5.49,5.49,0,0,0,.93.07,2,2,0,0,0,1.5-.52,4.22,4.22,0,0,0,.89-1.45q-1.24-2.45-2.49-5.49a67.37,67.37,0,0,1-2.34-6.82h3.85c.17.63.36,1.32.58,2.06s.45,1.49.7,2.25.49,1.49.75,2.21.49,1.37.72,2c.21-.58.43-1.24.66-2s.46-1.46.68-2.21.43-1.51.64-2.25l.55-2.06Z"/>
    <path class="f9a38dbe-31a5-406f-97e3-c5ca75e68564" d="M224.29,87.48a30.74,30.74,0,0,1-57.95,0"/>
  </g>
</svg>
