<svg id="bc9df3a5-41c4-4a7c-a3cf-1e16812d093f" data-name="Layer 1" xmlns="http://www.w3.org/2000/svg" viewBox="0 0 258.23 97.56">
  <defs>
    <style>
      .f1028838-0a99-44ea-ae56-f6d9eee38883 {
        fill: #073857;
      }

      .b837dffe-db74-4e14-97f6-e02b7760a0d2 {
        fill: #008ecf;
      }
    </style>
  </defs>
  <g>
    <path class="f1028838-0a99-44ea-ae56-f6d9eee38883" d="M27.73,52.77a3.64,3.64,0,0,0,1.42-.2.75.75,0,0,0,.42-.75.92.92,0,0,0-.54-.77,10.69,10.69,0,0,0-1.64-.75,15.37,15.37,0,0,1-1.55-.66,4.5,4.5,0,0,1-1.18-.82,3.17,3.17,0,0,1-.76-1.13,4.2,4.2,0,0,1-.27-1.59A3.46,3.46,0,0,1,25,43.24a5.86,5.86,0,0,1,3.69-1.05,11.77,11.77,0,0,1,2.25.21,10.75,10.75,0,0,1,1.71.45L32,45.69a13.46,13.46,0,0,0-1.38-.4,7.66,7.66,0,0,0-1.67-.17q-1.71,0-1.71,1a1.23,1.23,0,0,0,.07.39.9.9,0,0,0,.3.33,3.75,3.75,0,0,0,.6.34c.25.12.57.26,1,.41a13.75,13.75,0,0,1,2,.87,4.82,4.82,0,0,1,1.23.93A2.83,2.83,0,0,1,33,50.46a5,5,0,0,1,.18,1.41,3.27,3.27,0,0,1-1.43,2.88,7.12,7.12,0,0,1-4,1,11.47,11.47,0,0,1-2.85-.29,12.29,12.29,0,0,1-1.57-.49L23.9,52a12.58,12.58,0,0,0,1.9.57A9.26,9.26,0,0,0,27.73,52.77Z"/>
    <path class="f1028838-0a99-44ea-ae56-f6d9eee38883" d="M35.77,39.34l3.64-.59v3.78h4.37v3H39.41v4.52a3.55,3.55,0,0,0,.4,1.83,1.73,1.73,0,0,0,1.63.69,7.14,7.14,0,0,0,1.2-.11,6.72,6.72,0,0,0,1.14-.31L44.29,55a10.43,10.43,0,0,1-1.46.47,8.62,8.62,0,0,1-2,.19,6.51,6.51,0,0,1-2.47-.4,3.87,3.87,0,0,1-1.56-1.12A4.24,4.24,0,0,1,36,52.4a10.57,10.57,0,0,1-.23-2.27Z"/>
    <path class="f1028838-0a99-44ea-ae56-f6d9eee38883" d="M50.86,42.19a8.27,8.27,0,0,1,2.69.37,4,4,0,0,1,1.72,1,3.92,3.92,0,0,1,.92,1.66,8.16,8.16,0,0,1,.27,2.17V55c-.53.12-1.25.25-2.18.41a21.46,21.46,0,0,1-3.37.23,10.5,10.5,0,0,1-2.26-.22,5,5,0,0,1-1.74-.72,3.26,3.26,0,0,1-1.13-1.31,4.48,4.48,0,0,1-.39-2,3.76,3.76,0,0,1,.45-1.9,3.54,3.54,0,0,1,1.21-1.25,5.84,5.84,0,0,1,1.74-.67,9.55,9.55,0,0,1,2-.21,11.35,11.35,0,0,1,1.26.07,6.25,6.25,0,0,1,.89.15v-.34a2,2,0,0,0-.56-1.49,2.72,2.72,0,0,0-1.95-.56,12.32,12.32,0,0,0-1.83.14,8.08,8.08,0,0,0-1.57.37l-.46-2.93c.21-.06.47-.13.79-.2s.67-.14,1-.2.77-.11,1.18-.15S50.44,42.19,50.86,42.19Zm.3,10.65,1,0a5.9,5.9,0,0,0,.78-.08V50a6.63,6.63,0,0,0-.66-.09,5.81,5.81,0,0,0-.8,0,7.43,7.43,0,0,0-1,.06,2.61,2.61,0,0,0-.79.23,1.36,1.36,0,0,0-.54.46,1.31,1.31,0,0,0-.19.74,1.24,1.24,0,0,0,.57,1.18A3.18,3.18,0,0,0,51.16,52.84Z"/>
    <path class="f1028838-0a99-44ea-ae56-f6d9eee38883" d="M67.49,45.76c-.32-.08-.7-.17-1.14-.26a7.14,7.14,0,0,0-1.42-.13,6.72,6.72,0,0,0-.82.06,4.55,4.55,0,0,0-.72.13v9.82H59.75V43.22a20.36,20.36,0,0,1,2.31-.65,13.57,13.57,0,0,1,3-.3l.71,0,.83.1.83.15a3.79,3.79,0,0,1,.71.2Z"/>
    <path class="f1028838-0a99-44ea-ae56-f6d9eee38883" d="M69.94,39.34l3.64-.59v3.78H78v3H73.58v4.52a3.55,3.55,0,0,0,.4,1.83,1.72,1.72,0,0,0,1.62.69,7.26,7.26,0,0,0,1.21-.11A6.72,6.72,0,0,0,78,52.18L78.46,55a10.43,10.43,0,0,1-1.46.47,8.62,8.62,0,0,1-2,.19,6.48,6.48,0,0,1-2.47-.4A3.87,3.87,0,0,1,71,54.15a4.12,4.12,0,0,1-.82-1.75,10,10,0,0,1-.23-2.27Z"/>
    <path class="f1028838-0a99-44ea-ae56-f6d9eee38883" d="M94.59,48c-.32,1.23-.67,2.46-1,3.68s-.75,2.45-1.16,3.69H89.56c-.29-.68-.61-1.5-1-2.44s-.7-2-1.07-3.09-.74-2.3-1.13-3.54-.75-2.51-1.11-3.78h3.83c.13.59.28,1.23.43,1.92s.32,1.41.49,2.14.36,1.47.55,2.21.38,1.45.57,2.14c.21-.72.42-1.45.63-2.2s.39-1.49.58-2.21l.54-2.1c.17-.68.32-1.31.45-1.9H96c.13.59.28,1.22.44,1.9s.33,1.37.51,2.1l.56,2.21c.2.75.4,1.48.61,2.2.2-.69.4-1.4.59-2.14s.38-1.48.56-2.21.33-1.45.49-2.14.3-1.33.43-1.92H104q-.54,1.9-1.11,3.78c-.39,1.24-.76,2.42-1.13,3.54S101,52,100.66,52.94s-.67,1.76-1,2.44H96.86c-.4-1.24-.8-2.47-1.19-3.69S94.92,49.24,94.59,48Z"/>
    <path class="f1028838-0a99-44ea-ae56-f6d9eee38883" d="M109.89,38.82a2,2,0,0,1-.64,1.58,2.34,2.34,0,0,1-3.06,0,2,2,0,0,1-.64-1.58,2,2,0,0,1,.64-1.57,2.31,2.31,0,0,1,3.06,0A2,2,0,0,1,109.89,38.82Z"/>
    <rect class="f1028838-0a99-44ea-ae56-f6d9eee38883" x="105.91" y="42.53" width="3.64" height="12.85"/>
    <path class="f1028838-0a99-44ea-ae56-f6d9eee38883" d="M112.85,39.34l3.64-.59v3.78h4.37v3h-4.37v4.52a3.55,3.55,0,0,0,.4,1.83,1.73,1.73,0,0,0,1.63.69,7.14,7.14,0,0,0,1.2-.11,6.72,6.72,0,0,0,1.14-.31l.51,2.83a10.43,10.43,0,0,1-1.46.47,8.62,8.62,0,0,1-2,.19,6.51,6.51,0,0,1-2.47-.4,3.87,3.87,0,0,1-1.56-1.12,4.24,4.24,0,0,1-.82-1.75,10.57,10.57,0,0,1-.23-2.27Z"/>
    <path class="f1028838-0a99-44ea-ae56-f6d9eee38883" d="M123.81,55.38V37l3.64-.58v6.15a7.62,7.62,0,0,1,.94-.23,6.33,6.33,0,0,1,1.12-.11,6.8,6.8,0,0,1,2.6.43,4,4,0,0,1,1.66,1.21,4.74,4.74,0,0,1,.88,1.85,10.47,10.47,0,0,1,.25,2.4v7.25h-3.64V48.57a5,5,0,0,0-.45-2.49,1.8,1.8,0,0,0-1.67-.74,4.49,4.49,0,0,0-.92.09l-.77.18v9.77Z"/>
    <path class="b837dffe-db74-4e14-97f6-e02b7760a0d2" d="M148,38.82a2,2,0,0,1-.64,1.58,2.27,2.27,0,0,1-1.53.57,2.23,2.23,0,0,1-1.53-.57,2,2,0,0,1-.65-1.58,2,2,0,0,1,.65-1.57,2.2,2.2,0,0,1,1.53-.58,2.23,2.23,0,0,1,1.53.58A2,2,0,0,1,148,38.82Z"/>
    <rect class="f1028838-0a99-44ea-ae56-f6d9eee38883" x="144.06" y="42.53" width="3.64" height="12.85"/>
    <path class="f1028838-0a99-44ea-ae56-f6d9eee38883" d="M162.45,55c-.32.09-.7.19-1.12.28s-.87.16-1.33.23-.94.12-1.42.16-.94.06-1.38.06a8,8,0,0,1-2.83-.47,5.55,5.55,0,0,1-2.1-1.33A5.63,5.63,0,0,1,151,51.8a8,8,0,0,1-.45-2.77,9.52,9.52,0,0,1,.39-2.82A6.14,6.14,0,0,1,152,44.07a4.89,4.89,0,0,1,1.8-1.34,6,6,0,0,1,2.43-.46,5.6,5.6,0,0,1,1.35.14,7.25,7.25,0,0,1,1.21.42V37l3.64-.58Zm-8.23-6.11a4.42,4.42,0,0,0,.76,2.71,2.59,2.59,0,0,0,2.25,1c.32,0,.62,0,.9,0s.5-.05.68-.08V45.86a3.1,3.1,0,0,0-.89-.37,4.24,4.24,0,0,0-1.11-.15C155.08,45.34,154.22,46.52,154.22,48.86Z"/>
    <path class="f1028838-0a99-44ea-ae56-f6d9eee38883" d="M165.26,49.06a7.92,7.92,0,0,1,.53-3,6.43,6.43,0,0,1,1.38-2.13,5.84,5.84,0,0,1,2-1.3,6.22,6.22,0,0,1,2.29-.44,5.66,5.66,0,0,1,4.32,1.68,6.87,6.87,0,0,1,1.59,4.92q0,.32,0,.69c0,.26,0,.48-.05.67H169a2.42,2.42,0,0,0,1.05,1.79,4.22,4.22,0,0,0,2.49.66,9.8,9.8,0,0,0,2-.19,7.24,7.24,0,0,0,1.58-.45l.49,3a7,7,0,0,1-.78.29c-.33.1-.69.18-1.09.26s-.83.13-1.28.18a12.57,12.57,0,0,1-1.37.07,8.16,8.16,0,0,1-3-.51,5.9,5.9,0,0,1-2.12-1.4,5.65,5.65,0,0,1-1.25-2.12A8.28,8.28,0,0,1,165.26,49.06Zm8.55-1.4a3.86,3.86,0,0,0-.16-.9,2.27,2.27,0,0,0-.42-.78,2,2,0,0,0-.7-.56,2.29,2.29,0,0,0-1.07-.22,2.62,2.62,0,0,0-1.05.2,2.38,2.38,0,0,0-.73.55,2.51,2.51,0,0,0-.45.8,4.86,4.86,0,0,0-.23.91Z"/>
    <path class="f1028838-0a99-44ea-ae56-f6d9eee38883" d="M180.13,43a23.81,23.81,0,0,1,2.4-.5,20.17,20.17,0,0,1,3.08-.23,7.39,7.39,0,0,1,2.72.43,4.06,4.06,0,0,1,1.72,1.21,4.77,4.77,0,0,1,.9,1.85,9.9,9.9,0,0,1,.27,2.4v7.25h-3.64V48.57a4.86,4.86,0,0,0-.46-2.49,1.89,1.89,0,0,0-1.73-.74c-.27,0-.54,0-.83,0a7.56,7.56,0,0,0-.79.09v9.91h-3.64Z"/>
    <path class="f1028838-0a99-44ea-ae56-f6d9eee38883" d="M194.4,39.34l3.64-.59v3.78h4.37v3H198v4.52a3.55,3.55,0,0,0,.4,1.83,1.72,1.72,0,0,0,1.62.69,7.26,7.26,0,0,0,1.21-.11,6.72,6.72,0,0,0,1.14-.31l.51,2.83a10.43,10.43,0,0,1-1.46.47,8.62,8.62,0,0,1-2,.19,6.48,6.48,0,0,1-2.47-.4,3.87,3.87,0,0,1-1.56-1.12,4.12,4.12,0,0,1-.82-1.75,10,10,0,0,1-.23-2.27Z"/>
    <path class="b837dffe-db74-4e14-97f6-e02b7760a0d2" d="M209.34,38.82a2,2,0,0,1-.64,1.58,2.34,2.34,0,0,1-3.06,0,2,2,0,0,1-.64-1.58,2,2,0,0,1,.64-1.57,2.31,2.31,0,0,1,3.06,0A2,2,0,0,1,209.34,38.82Z"/>
    <rect class="f1028838-0a99-44ea-ae56-f6d9eee38883" x="205.36" y="42.53" width="3.64" height="12.85"/>
    <path class="f1028838-0a99-44ea-ae56-f6d9eee38883" d="M212.3,39.34l3.64-.59v3.78h4.37v3h-4.37v4.52a3.55,3.55,0,0,0,.4,1.83,1.73,1.73,0,0,0,1.63.69,7.14,7.14,0,0,0,1.2-.11,6.72,6.72,0,0,0,1.14-.31l.51,2.83a10,10,0,0,1-1.46.47,8.62,8.62,0,0,1-2,.19,6.51,6.51,0,0,1-2.47-.4,3.87,3.87,0,0,1-1.56-1.12,4.24,4.24,0,0,1-.82-1.75,10.57,10.57,0,0,1-.23-2.27Z"/>
    <path class="f1028838-0a99-44ea-ae56-f6d9eee38883" d="M234.94,42.53c-.74,2.48-1.5,4.8-2.3,7S231,53.76,230,55.8a14.09,14.09,0,0,1-1,1.86,5.91,5.91,0,0,1-1.12,1.28,4.11,4.11,0,0,1-1.39.73,6.38,6.38,0,0,1-1.79.23,7,7,0,0,1-1.58-.16,7.58,7.58,0,0,1-1.19-.35l.64-2.91a6.32,6.32,0,0,0,1,.27,5.49,5.49,0,0,0,.93.07,2,2,0,0,0,1.5-.52,4.18,4.18,0,0,0,.89-1.46q-1.24-2.43-2.49-5.48A70.08,70.08,0,0,1,222,42.53h3.86c.17.64.36,1.33.58,2.07s.45,1.49.7,2.25.49,1.49.75,2.21.49,1.36.72,1.95q.32-.88.66-1.95c.23-.72.46-1.46.68-2.21s.43-1.51.63-2.25.39-1.43.56-2.07Z"/>
    <path class="b837dffe-db74-4e14-97f6-e02b7760a0d2" d="M176.53,84.42A32.2,32.2,0,0,1,146.23,63a1.41,1.41,0,0,1,2.66-.94,29.33,29.33,0,0,0,55.29,0,1.41,1.41,0,1,1,2.66.94A32.22,32.22,0,0,1,176.53,84.42Z"/>
  </g>
</svg>
