<?xml version="1.0" encoding="utf-8"?>
<!-- Generator: Adobe Illustrator 24.1.3, SVG Export Plug-In . SVG Version: 6.00 Build 0)  -->
<svg version="1.1" id="Layer_1" xmlns="http://www.w3.org/2000/svg" xmlns:xlink="http://www.w3.org/1999/xlink" x="0px" y="0px"
	 viewBox="0 0 32 32" style="enable-background:new 0 0 32 32;" xml:space="preserve">
<style type="text/css">
	.st0{fill-rule:evenodd;clip-rule:evenodd;fill:#FFFFFF;}
</style>
<g>
	<path class="st0" d="M28,10.1c-0.8,0.4-1.7,0.6-2.6,0.7c0.9-0.6,1.6-1.5,2-2.5c-0.9,0.5-1.9,0.9-2.9,1.1c-1.7-1.8-4.6-1.9-6.4-0.2
		c-1.2,1.1-1.7,2.8-1.3,4.3c-3.6-0.2-7-1.9-9.3-4.7c-0.4,0.7-0.6,1.5-0.6,2.3c0,1.5,0.8,2.9,2,3.8c-0.7,0-1.4-0.2-2-0.6v0.1
		c0,2.1,1.5,4,3.6,4.4c-0.7,0.2-1.4,0.2-2,0.1c0.6,1.8,2.3,3.1,4.2,3.1c-1.6,1.3-3.6,1.9-5.6,1.9c-0.4,0-0.7,0-1.1-0.1
		c2.1,1.3,4.5,2,6.9,2c8.3,0,12.8-6.9,12.8-12.8c0-0.2,0-0.4,0-0.6C26.6,11.8,27.4,11,28,10.1"/>
</g>
</svg>
