<svg id="a242bc50-2c93-40cb-bbcb-199a78d5e942" data-name="Layer 1" xmlns="http://www.w3.org/2000/svg" viewBox="0 0 100 100">
					  <defs>
					    <style>
					      .b3553759-6001-4884-a8ba-0aa34119ba4e {
					        fill: #fff;
					      }
					    </style>
					  </defs>
					  <g id="a8ff9680-240e-4ac9-8293-67c50da86fca" data-name="g4167">
					    <path id="f9f4ff79-63cc-4e1c-aca4-4f999d010879" data-name="path4156" class="b3553759-6001-4884-a8ba-0aa34119ba4e" d="M50,20.61s-26.25,0-32.84,1.71a10.87,10.87,0,0,0-7.42,7.47C8,36.38,8,50,8,50S8,63.72,9.71,70.21a10.71,10.71,0,0,0,7.42,7.42C23.77,79.39,50,79.39,50,79.39s26.31,0,32.9-1.71a10.47,10.47,0,0,0,7.37-7.42C92,63.72,92,50.08,92,50.08s0-13.7-1.76-20.29a10.4,10.4,0,0,0-7.37-7.37C76.28,20.61,50,20.61,50,20.61ZM41.62,37.42,63.46,50,41.62,62.58V37.42Z"></path>
					  </g>
					</svg>